G04 #@! TF.GenerationSoftware,KiCad,Pcbnew,(5.0.0)*
G04 #@! TF.CreationDate,2019-06-09T20:22:17-04:00*
G04 #@! TF.ProjectId,ExG_ADS1292_v4,4578475F414453313239325F76342E6B,rev?*
G04 #@! TF.SameCoordinates,Original*
G04 #@! TF.FileFunction,Copper,L2,Bot,Signal*
G04 #@! TF.FilePolarity,Positive*
%FSLAX46Y46*%
G04 Gerber Fmt 4.6, Leading zero omitted, Abs format (unit mm)*
G04 Created by KiCad (PCBNEW (5.0.0)) date 06/09/19 20:22:17*
%MOMM*%
%LPD*%
G01*
G04 APERTURE LIST*
G04 #@! TA.AperFunction,ViaPad*
%ADD10C,0.508000*%
G04 #@! TD*
G04 #@! TA.AperFunction,Conductor*
%ADD11C,0.457200*%
G04 #@! TD*
G04 #@! TA.AperFunction,Conductor*
%ADD12C,0.229000*%
G04 #@! TD*
G04 #@! TA.AperFunction,Conductor*
%ADD13C,0.152000*%
G04 #@! TD*
G04 #@! TA.AperFunction,Conductor*
%ADD14C,0.254000*%
G04 #@! TD*
G04 APERTURE END LIST*
D10*
G04 #@! TO.N,DVDD*
X281380000Y-139390000D03*
X270070000Y-140110000D03*
X288240000Y-138300000D03*
X287570000Y-129800000D03*
X280880000Y-137160000D03*
X274640000Y-137010000D03*
X275120000Y-130980000D03*
X274580000Y-129450000D03*
X285179580Y-131429580D03*
G04 #@! TO.N,VCC*
X277675000Y-141625000D03*
X281100000Y-145300000D03*
G04 #@! TO.N,DGND*
X287740000Y-139830000D03*
X271200000Y-144600000D03*
X285030000Y-132840000D03*
X268940000Y-142137500D03*
X279070000Y-128500000D03*
X283750000Y-138380000D03*
X286070000Y-134870000D03*
X268986000Y-135610000D03*
X276820000Y-128420000D03*
X292380000Y-141910000D03*
X285775000Y-127700000D03*
G04 #@! TO.N,/BATT_IN*
X290000000Y-145010000D03*
X288340000Y-141140000D03*
G04 #@! TO.N,VccSwitch*
X281700000Y-143700000D03*
X289700000Y-140475000D03*
X290050000Y-144075000D03*
G04 #@! TO.N,1.8V*
X277500000Y-144250000D03*
X273700000Y-144100000D03*
X283300000Y-126425000D03*
X287550000Y-125956400D03*
X288175000Y-129000000D03*
X285450000Y-130100000D03*
G04 #@! TD*
D11*
G04 #@! TO.N,DVDD*
X282185000Y-138585000D02*
X282305000Y-138585000D01*
X281380000Y-139390000D02*
X282185000Y-138585000D01*
X280880000Y-137160000D02*
X280880000Y-135729160D01*
X280880000Y-135729160D02*
X285179580Y-131429580D01*
X286809160Y-129800000D02*
X287570000Y-129800000D01*
X285179580Y-131429580D02*
X286809160Y-129800000D01*
X273170000Y-137010000D02*
X274640000Y-137010000D01*
X270070000Y-140110000D02*
X273170000Y-137010000D01*
X288240000Y-138300000D02*
X287390000Y-139150000D01*
X282870000Y-139150000D02*
X282305000Y-138585000D01*
X282305000Y-138585000D02*
X280880000Y-137160000D01*
X287390000Y-139150000D02*
X282870000Y-139150000D01*
X280730000Y-137010000D02*
X280880000Y-137160000D01*
X274640000Y-137010000D02*
X279270000Y-137010000D01*
X279270000Y-137010000D02*
X280730000Y-137010000D01*
X275120000Y-130980000D02*
X275120000Y-136450000D01*
X275120000Y-136450000D02*
X274640000Y-137010000D01*
X275120000Y-129990000D02*
X275120000Y-130980000D01*
X274580000Y-129450000D02*
X275120000Y-129990000D01*
D12*
G04 #@! TO.N,VCC*
X277675000Y-141625000D02*
X281100000Y-145050000D01*
X281100000Y-145050000D02*
X281100000Y-145300000D01*
G04 #@! TO.N,DGND*
X290000000Y-139530000D02*
X292380000Y-141910000D01*
X288040000Y-139530000D02*
X290000000Y-139530000D01*
X287740000Y-139830000D02*
X288040000Y-139530000D01*
D13*
X268940000Y-142340000D02*
X268940000Y-142137500D01*
X271200000Y-144600000D02*
X268940000Y-142340000D01*
D11*
X285030000Y-132840000D02*
X285030000Y-133830000D01*
X285030000Y-133830000D02*
X286070000Y-134870000D01*
X268986000Y-135610000D02*
X268986000Y-142091500D01*
D13*
X268986000Y-142091500D02*
X268940000Y-142137500D01*
X279070000Y-128500000D02*
X279040000Y-128500000D01*
D11*
X286070000Y-136060000D02*
X286070000Y-134870000D01*
X283750000Y-138380000D02*
X286070000Y-136060000D01*
D13*
X268986000Y-135610000D02*
X268990000Y-135610000D01*
X276810000Y-128430000D02*
X276800000Y-128430000D01*
X276820000Y-128420000D02*
X276810000Y-128430000D01*
G04 #@! TO.N,/BATT_IN*
X290000000Y-145010000D02*
X289940000Y-144950000D01*
X289940000Y-144950000D02*
X289370000Y-144960000D01*
X289370000Y-144960000D02*
X288340000Y-143930000D01*
X288340000Y-143930000D02*
X288340000Y-141140000D01*
D12*
G04 #@! TO.N,VccSwitch*
X281700000Y-143700000D02*
X284925000Y-140475000D01*
X284925000Y-140475000D02*
X289700000Y-140475000D01*
D13*
X289953999Y-140728999D02*
X289700000Y-140475000D01*
X290303999Y-141078999D02*
X289953999Y-140728999D01*
X290303999Y-143821001D02*
X290303999Y-141078999D01*
X290050000Y-144075000D02*
X290303999Y-143821001D01*
D12*
G04 #@! TO.N,1.8V*
X277500000Y-144250000D02*
X273850000Y-144250000D01*
X273850000Y-144250000D02*
X273700000Y-144100000D01*
D11*
X268304999Y-135351199D02*
X270281198Y-133375000D01*
X268304999Y-144654999D02*
X268304999Y-135351199D01*
X269700000Y-146050000D02*
X268304999Y-144654999D01*
X273700000Y-144100000D02*
X271750000Y-146050000D01*
X271750000Y-146050000D02*
X269700000Y-146050000D01*
X270281198Y-133375000D02*
X272350000Y-133375000D01*
X272350000Y-133375000D02*
X273750000Y-131975000D01*
X276665198Y-126425000D02*
X283300000Y-126425000D01*
X273750000Y-131975000D02*
X273750000Y-129340198D01*
X273750000Y-129340198D02*
X276665198Y-126425000D01*
D13*
X283300000Y-126425000D02*
X287081400Y-126425000D01*
X287081400Y-126425000D02*
X287550000Y-125956400D01*
D12*
X287550000Y-125956400D02*
X287550000Y-128375000D01*
X287550000Y-128375000D02*
X288175000Y-129000000D01*
X286550000Y-129000000D02*
X285450000Y-130100000D01*
X288175000Y-129000000D02*
X286550000Y-129000000D01*
G04 #@! TD*
D14*
G04 #@! TO.N,DGND*
G36*
X297415001Y-146440532D02*
X272561485Y-146459828D01*
X274021815Y-144999500D01*
X276992264Y-144999500D01*
X276996422Y-145003658D01*
X277323167Y-145139000D01*
X277676833Y-145139000D01*
X278003578Y-145003658D01*
X278253658Y-144753578D01*
X278389000Y-144426833D01*
X278389000Y-144073167D01*
X278253658Y-143746422D01*
X278003578Y-143496342D01*
X277676833Y-143361000D01*
X277323167Y-143361000D01*
X276996422Y-143496342D01*
X276992264Y-143500500D01*
X274357736Y-143500500D01*
X274203578Y-143346342D01*
X273876833Y-143211000D01*
X273523167Y-143211000D01*
X273196422Y-143346342D01*
X272946342Y-143596422D01*
X272920942Y-143657743D01*
X271392287Y-145186400D01*
X270057715Y-145186400D01*
X269168599Y-144297286D01*
X269168599Y-135708912D01*
X270638913Y-134238600D01*
X272264951Y-134238600D01*
X272350000Y-134255517D01*
X272435049Y-134238600D01*
X272435053Y-134238600D01*
X272686960Y-134188493D01*
X272972620Y-133997620D01*
X273020802Y-133925511D01*
X274256400Y-132689914D01*
X274256401Y-136130534D01*
X274242802Y-136146400D01*
X273255048Y-136146400D01*
X273169999Y-136129483D01*
X273084950Y-136146400D01*
X273084947Y-136146400D01*
X272833040Y-136196507D01*
X272547380Y-136387380D01*
X272499200Y-136459486D01*
X269627746Y-139330941D01*
X269566422Y-139356342D01*
X269316342Y-139606422D01*
X269181000Y-139933167D01*
X269181000Y-140286833D01*
X269316342Y-140613578D01*
X269566422Y-140863658D01*
X269893167Y-140999000D01*
X270246833Y-140999000D01*
X270573578Y-140863658D01*
X270823658Y-140613578D01*
X270849059Y-140552254D01*
X273527714Y-137873600D01*
X274401846Y-137873600D01*
X274463167Y-137899000D01*
X274816833Y-137899000D01*
X274878154Y-137873600D01*
X280336364Y-137873600D01*
X280376422Y-137913658D01*
X280437746Y-137939059D01*
X281023686Y-138525000D01*
X280937745Y-138610941D01*
X280876422Y-138636342D01*
X280626342Y-138886422D01*
X280491000Y-139213167D01*
X280491000Y-139566833D01*
X280626342Y-139893578D01*
X280876422Y-140143658D01*
X281203167Y-140279000D01*
X281556833Y-140279000D01*
X281883578Y-140143658D01*
X282133658Y-139893578D01*
X282159059Y-139832255D01*
X282235890Y-139755424D01*
X282247380Y-139772620D01*
X282319483Y-139820798D01*
X282319484Y-139820799D01*
X282427283Y-139892828D01*
X282533040Y-139963493D01*
X282784947Y-140013600D01*
X282784951Y-140013600D01*
X282870000Y-140030517D01*
X282955049Y-140013600D01*
X284326447Y-140013600D01*
X281529048Y-142811000D01*
X281523167Y-142811000D01*
X281196422Y-142946342D01*
X280946342Y-143196422D01*
X280811000Y-143523167D01*
X280811000Y-143701046D01*
X278564000Y-141454048D01*
X278564000Y-141448167D01*
X278428658Y-141121422D01*
X278178578Y-140871342D01*
X277851833Y-140736000D01*
X277498167Y-140736000D01*
X277171422Y-140871342D01*
X276921342Y-141121422D01*
X276786000Y-141448167D01*
X276786000Y-141801833D01*
X276921342Y-142128578D01*
X277171422Y-142378658D01*
X277498167Y-142514000D01*
X277504048Y-142514000D01*
X280211000Y-145220954D01*
X280211000Y-145476833D01*
X280346342Y-145803578D01*
X280596422Y-146053658D01*
X280923167Y-146189000D01*
X281276833Y-146189000D01*
X281603578Y-146053658D01*
X281853658Y-145803578D01*
X281989000Y-145476833D01*
X281989000Y-145123167D01*
X281853658Y-144796422D01*
X281788327Y-144731091D01*
X281693385Y-144589000D01*
X281876833Y-144589000D01*
X282203578Y-144453658D01*
X282453658Y-144203578D01*
X282589000Y-143876833D01*
X282589000Y-143870952D01*
X285235453Y-141224500D01*
X287451000Y-141224500D01*
X287451000Y-141316833D01*
X287586342Y-141643578D01*
X287629001Y-141686237D01*
X287629000Y-143859979D01*
X287615072Y-143930000D01*
X287629000Y-144000021D01*
X287629000Y-144000025D01*
X287670253Y-144207417D01*
X287698706Y-144250000D01*
X287767140Y-144352418D01*
X287827398Y-144442601D01*
X287886762Y-144482267D01*
X288822185Y-145417691D01*
X288866469Y-145481514D01*
X288980146Y-145554620D01*
X289092581Y-145629746D01*
X289098928Y-145631009D01*
X289104373Y-145634510D01*
X289237419Y-145658556D01*
X289370000Y-145684928D01*
X289409779Y-145677015D01*
X289496422Y-145763658D01*
X289823167Y-145899000D01*
X290176833Y-145899000D01*
X290503578Y-145763658D01*
X290753658Y-145513578D01*
X290889000Y-145186833D01*
X290889000Y-144833167D01*
X290789437Y-144592799D01*
X290803658Y-144578578D01*
X290939000Y-144251833D01*
X290939000Y-144150420D01*
X290973746Y-144098419D01*
X291014999Y-143891027D01*
X291014999Y-143891022D01*
X291028927Y-143821001D01*
X291014999Y-143750980D01*
X291014999Y-141149020D01*
X291028927Y-141078999D01*
X291014999Y-141008978D01*
X291014999Y-141008973D01*
X290973746Y-140801581D01*
X290816601Y-140566397D01*
X290757232Y-140526728D01*
X290589000Y-140358495D01*
X290589000Y-140298167D01*
X290453658Y-139971422D01*
X290203578Y-139721342D01*
X289876833Y-139586000D01*
X289523167Y-139586000D01*
X289196422Y-139721342D01*
X289192264Y-139725500D01*
X288044105Y-139725500D01*
X288060801Y-139700512D01*
X288682256Y-139079058D01*
X288743578Y-139053658D01*
X288993658Y-138803578D01*
X289129000Y-138476833D01*
X289129000Y-138123167D01*
X288993658Y-137796422D01*
X288743578Y-137546342D01*
X288416833Y-137411000D01*
X288063167Y-137411000D01*
X287736422Y-137546342D01*
X287486342Y-137796422D01*
X287460942Y-137857744D01*
X287032286Y-138286400D01*
X283227714Y-138286400D01*
X282975801Y-138034488D01*
X282927620Y-137962380D01*
X282855517Y-137914202D01*
X281743600Y-136802287D01*
X281743600Y-136086873D01*
X285621837Y-132208638D01*
X285683158Y-132183238D01*
X285933238Y-131933158D01*
X285958639Y-131871834D01*
X287166874Y-130663600D01*
X287331846Y-130663600D01*
X287393167Y-130689000D01*
X287746833Y-130689000D01*
X288073578Y-130553658D01*
X288323658Y-130303578D01*
X288459000Y-129976833D01*
X288459000Y-129844610D01*
X288678578Y-129753658D01*
X288928658Y-129503578D01*
X289064000Y-129176833D01*
X289064000Y-128823167D01*
X288928658Y-128496422D01*
X288678578Y-128246342D01*
X288351833Y-128111000D01*
X288345952Y-128111000D01*
X288299500Y-128064548D01*
X288299500Y-126464136D01*
X288303658Y-126459978D01*
X288417557Y-126185000D01*
X297415000Y-126185000D01*
X297415001Y-146440532D01*
X297415001Y-146440532D01*
G37*
X297415001Y-146440532D02*
X272561485Y-146459828D01*
X274021815Y-144999500D01*
X276992264Y-144999500D01*
X276996422Y-145003658D01*
X277323167Y-145139000D01*
X277676833Y-145139000D01*
X278003578Y-145003658D01*
X278253658Y-144753578D01*
X278389000Y-144426833D01*
X278389000Y-144073167D01*
X278253658Y-143746422D01*
X278003578Y-143496342D01*
X277676833Y-143361000D01*
X277323167Y-143361000D01*
X276996422Y-143496342D01*
X276992264Y-143500500D01*
X274357736Y-143500500D01*
X274203578Y-143346342D01*
X273876833Y-143211000D01*
X273523167Y-143211000D01*
X273196422Y-143346342D01*
X272946342Y-143596422D01*
X272920942Y-143657743D01*
X271392287Y-145186400D01*
X270057715Y-145186400D01*
X269168599Y-144297286D01*
X269168599Y-135708912D01*
X270638913Y-134238600D01*
X272264951Y-134238600D01*
X272350000Y-134255517D01*
X272435049Y-134238600D01*
X272435053Y-134238600D01*
X272686960Y-134188493D01*
X272972620Y-133997620D01*
X273020802Y-133925511D01*
X274256400Y-132689914D01*
X274256401Y-136130534D01*
X274242802Y-136146400D01*
X273255048Y-136146400D01*
X273169999Y-136129483D01*
X273084950Y-136146400D01*
X273084947Y-136146400D01*
X272833040Y-136196507D01*
X272547380Y-136387380D01*
X272499200Y-136459486D01*
X269627746Y-139330941D01*
X269566422Y-139356342D01*
X269316342Y-139606422D01*
X269181000Y-139933167D01*
X269181000Y-140286833D01*
X269316342Y-140613578D01*
X269566422Y-140863658D01*
X269893167Y-140999000D01*
X270246833Y-140999000D01*
X270573578Y-140863658D01*
X270823658Y-140613578D01*
X270849059Y-140552254D01*
X273527714Y-137873600D01*
X274401846Y-137873600D01*
X274463167Y-137899000D01*
X274816833Y-137899000D01*
X274878154Y-137873600D01*
X280336364Y-137873600D01*
X280376422Y-137913658D01*
X280437746Y-137939059D01*
X281023686Y-138525000D01*
X280937745Y-138610941D01*
X280876422Y-138636342D01*
X280626342Y-138886422D01*
X280491000Y-139213167D01*
X280491000Y-139566833D01*
X280626342Y-139893578D01*
X280876422Y-140143658D01*
X281203167Y-140279000D01*
X281556833Y-140279000D01*
X281883578Y-140143658D01*
X282133658Y-139893578D01*
X282159059Y-139832255D01*
X282235890Y-139755424D01*
X282247380Y-139772620D01*
X282319483Y-139820798D01*
X282319484Y-139820799D01*
X282427283Y-139892828D01*
X282533040Y-139963493D01*
X282784947Y-140013600D01*
X282784951Y-140013600D01*
X282870000Y-140030517D01*
X282955049Y-140013600D01*
X284326447Y-140013600D01*
X281529048Y-142811000D01*
X281523167Y-142811000D01*
X281196422Y-142946342D01*
X280946342Y-143196422D01*
X280811000Y-143523167D01*
X280811000Y-143701046D01*
X278564000Y-141454048D01*
X278564000Y-141448167D01*
X278428658Y-141121422D01*
X278178578Y-140871342D01*
X277851833Y-140736000D01*
X277498167Y-140736000D01*
X277171422Y-140871342D01*
X276921342Y-141121422D01*
X276786000Y-141448167D01*
X276786000Y-141801833D01*
X276921342Y-142128578D01*
X277171422Y-142378658D01*
X277498167Y-142514000D01*
X277504048Y-142514000D01*
X280211000Y-145220954D01*
X280211000Y-145476833D01*
X280346342Y-145803578D01*
X280596422Y-146053658D01*
X280923167Y-146189000D01*
X281276833Y-146189000D01*
X281603578Y-146053658D01*
X281853658Y-145803578D01*
X281989000Y-145476833D01*
X281989000Y-145123167D01*
X281853658Y-144796422D01*
X281788327Y-144731091D01*
X281693385Y-144589000D01*
X281876833Y-144589000D01*
X282203578Y-144453658D01*
X282453658Y-144203578D01*
X282589000Y-143876833D01*
X282589000Y-143870952D01*
X285235453Y-141224500D01*
X287451000Y-141224500D01*
X287451000Y-141316833D01*
X287586342Y-141643578D01*
X287629001Y-141686237D01*
X287629000Y-143859979D01*
X287615072Y-143930000D01*
X287629000Y-144000021D01*
X287629000Y-144000025D01*
X287670253Y-144207417D01*
X287698706Y-144250000D01*
X287767140Y-144352418D01*
X287827398Y-144442601D01*
X287886762Y-144482267D01*
X288822185Y-145417691D01*
X288866469Y-145481514D01*
X288980146Y-145554620D01*
X289092581Y-145629746D01*
X289098928Y-145631009D01*
X289104373Y-145634510D01*
X289237419Y-145658556D01*
X289370000Y-145684928D01*
X289409779Y-145677015D01*
X289496422Y-145763658D01*
X289823167Y-145899000D01*
X290176833Y-145899000D01*
X290503578Y-145763658D01*
X290753658Y-145513578D01*
X290889000Y-145186833D01*
X290889000Y-144833167D01*
X290789437Y-144592799D01*
X290803658Y-144578578D01*
X290939000Y-144251833D01*
X290939000Y-144150420D01*
X290973746Y-144098419D01*
X291014999Y-143891027D01*
X291014999Y-143891022D01*
X291028927Y-143821001D01*
X291014999Y-143750980D01*
X291014999Y-141149020D01*
X291028927Y-141078999D01*
X291014999Y-141008978D01*
X291014999Y-141008973D01*
X290973746Y-140801581D01*
X290816601Y-140566397D01*
X290757232Y-140526728D01*
X290589000Y-140358495D01*
X290589000Y-140298167D01*
X290453658Y-139971422D01*
X290203578Y-139721342D01*
X289876833Y-139586000D01*
X289523167Y-139586000D01*
X289196422Y-139721342D01*
X289192264Y-139725500D01*
X288044105Y-139725500D01*
X288060801Y-139700512D01*
X288682256Y-139079058D01*
X288743578Y-139053658D01*
X288993658Y-138803578D01*
X289129000Y-138476833D01*
X289129000Y-138123167D01*
X288993658Y-137796422D01*
X288743578Y-137546342D01*
X288416833Y-137411000D01*
X288063167Y-137411000D01*
X287736422Y-137546342D01*
X287486342Y-137796422D01*
X287460942Y-137857744D01*
X287032286Y-138286400D01*
X283227714Y-138286400D01*
X282975801Y-138034488D01*
X282927620Y-137962380D01*
X282855517Y-137914202D01*
X281743600Y-136802287D01*
X281743600Y-136086873D01*
X285621837Y-132208638D01*
X285683158Y-132183238D01*
X285933238Y-131933158D01*
X285958639Y-131871834D01*
X287166874Y-130663600D01*
X287331846Y-130663600D01*
X287393167Y-130689000D01*
X287746833Y-130689000D01*
X288073578Y-130553658D01*
X288323658Y-130303578D01*
X288459000Y-129976833D01*
X288459000Y-129844610D01*
X288678578Y-129753658D01*
X288928658Y-129503578D01*
X289064000Y-129176833D01*
X289064000Y-128823167D01*
X288928658Y-128496422D01*
X288678578Y-128246342D01*
X288351833Y-128111000D01*
X288345952Y-128111000D01*
X288299500Y-128064548D01*
X288299500Y-126464136D01*
X288303658Y-126459978D01*
X288417557Y-126185000D01*
X297415000Y-126185000D01*
X297415001Y-146440532D01*
G36*
X286800501Y-128250500D02*
X286623815Y-128250500D01*
X286550000Y-128235817D01*
X286476185Y-128250500D01*
X286476184Y-128250500D01*
X286257560Y-128293987D01*
X286009641Y-128459641D01*
X285967827Y-128522220D01*
X285279048Y-129211000D01*
X285273167Y-129211000D01*
X284946422Y-129346342D01*
X284696342Y-129596422D01*
X284561000Y-129923167D01*
X284561000Y-130276833D01*
X284696342Y-130603578D01*
X284740305Y-130647541D01*
X284737326Y-130650521D01*
X284676002Y-130675922D01*
X284425922Y-130926002D01*
X284400522Y-130987323D01*
X280329487Y-135058360D01*
X280257381Y-135106540D01*
X280209202Y-135178645D01*
X280066507Y-135392201D01*
X279999483Y-135729160D01*
X280016401Y-135814214D01*
X280016401Y-136146400D01*
X275983600Y-136146400D01*
X275983600Y-131218154D01*
X276009000Y-131156833D01*
X276009000Y-130803167D01*
X275983600Y-130741846D01*
X275983600Y-130075047D01*
X276000517Y-129989999D01*
X275983600Y-129904951D01*
X275983600Y-129904947D01*
X275933493Y-129653040D01*
X275742620Y-129367380D01*
X275670514Y-129319200D01*
X275359059Y-129007746D01*
X275342864Y-128968648D01*
X277022913Y-127288600D01*
X283061846Y-127288600D01*
X283123167Y-127314000D01*
X283476833Y-127314000D01*
X283803578Y-127178658D01*
X283846236Y-127136000D01*
X286800500Y-127136000D01*
X286800501Y-128250500D01*
X286800501Y-128250500D01*
G37*
X286800501Y-128250500D02*
X286623815Y-128250500D01*
X286550000Y-128235817D01*
X286476185Y-128250500D01*
X286476184Y-128250500D01*
X286257560Y-128293987D01*
X286009641Y-128459641D01*
X285967827Y-128522220D01*
X285279048Y-129211000D01*
X285273167Y-129211000D01*
X284946422Y-129346342D01*
X284696342Y-129596422D01*
X284561000Y-129923167D01*
X284561000Y-130276833D01*
X284696342Y-130603578D01*
X284740305Y-130647541D01*
X284737326Y-130650521D01*
X284676002Y-130675922D01*
X284425922Y-130926002D01*
X284400522Y-130987323D01*
X280329487Y-135058360D01*
X280257381Y-135106540D01*
X280209202Y-135178645D01*
X280066507Y-135392201D01*
X279999483Y-135729160D01*
X280016401Y-135814214D01*
X280016401Y-136146400D01*
X275983600Y-136146400D01*
X275983600Y-131218154D01*
X276009000Y-131156833D01*
X276009000Y-130803167D01*
X275983600Y-130741846D01*
X275983600Y-130075047D01*
X276000517Y-129989999D01*
X275983600Y-129904951D01*
X275983600Y-129904947D01*
X275933493Y-129653040D01*
X275742620Y-129367380D01*
X275670514Y-129319200D01*
X275359059Y-129007746D01*
X275342864Y-128968648D01*
X277022913Y-127288600D01*
X283061846Y-127288600D01*
X283123167Y-127314000D01*
X283476833Y-127314000D01*
X283803578Y-127178658D01*
X283846236Y-127136000D01*
X286800500Y-127136000D01*
X286800501Y-128250500D01*
G04 #@! TD*
M02*
