G04 #@! TF.GenerationSoftware,KiCad,Pcbnew,(5.0.0)*
G04 #@! TF.CreationDate,2019-06-09T20:22:17-04:00*
G04 #@! TF.ProjectId,ExG_ADS1292_v4,4578475F414453313239325F76342E6B,rev?*
G04 #@! TF.SameCoordinates,Original*
G04 #@! TF.FileFunction,Copper,L1,Top,Signal*
G04 #@! TF.FilePolarity,Positive*
%FSLAX46Y46*%
G04 Gerber Fmt 4.6, Leading zero omitted, Abs format (unit mm)*
G04 Created by KiCad (PCBNEW (5.0.0)) date 06/09/19 20:22:17*
%MOMM*%
%LPD*%
G01*
G04 APERTURE LIST*
G04 #@! TA.AperFunction,BGAPad,CuDef*
%ADD10C,0.230000*%
G04 #@! TD*
G04 #@! TA.AperFunction,SMDPad,CuDef*
%ADD11R,0.599440X0.398780*%
G04 #@! TD*
G04 #@! TA.AperFunction,SMDPad,CuDef*
%ADD12R,0.398780X0.599440*%
G04 #@! TD*
G04 #@! TA.AperFunction,SMDPad,CuDef*
%ADD13R,0.600000X0.510000*%
G04 #@! TD*
G04 #@! TA.AperFunction,SMDPad,CuDef*
%ADD14R,0.900000X0.700000*%
G04 #@! TD*
G04 #@! TA.AperFunction,SMDPad,CuDef*
%ADD15R,1.700000X1.700000*%
G04 #@! TD*
G04 #@! TA.AperFunction,SMDPad,CuDef*
%ADD16O,1.700000X1.700000*%
G04 #@! TD*
G04 #@! TA.AperFunction,SMDPad,CuDef*
%ADD17R,0.800000X0.800000*%
G04 #@! TD*
G04 #@! TA.AperFunction,SMDPad,CuDef*
%ADD18O,0.600000X0.200000*%
G04 #@! TD*
G04 #@! TA.AperFunction,SMDPad,CuDef*
%ADD19R,0.600000X0.200000*%
G04 #@! TD*
G04 #@! TA.AperFunction,SMDPad,CuDef*
%ADD20O,0.200000X0.600000*%
G04 #@! TD*
G04 #@! TA.AperFunction,SMDPad,CuDef*
%ADD21R,0.200000X0.600000*%
G04 #@! TD*
G04 #@! TA.AperFunction,SMDPad,CuDef*
%ADD22R,1.325000X1.325000*%
G04 #@! TD*
G04 #@! TA.AperFunction,SMDPad,CuDef*
%ADD23R,0.300000X0.650000*%
G04 #@! TD*
G04 #@! TA.AperFunction,SMDPad,CuDef*
%ADD24R,1.240000X0.775000*%
G04 #@! TD*
G04 #@! TA.AperFunction,SMDPad,CuDef*
%ADD25R,0.700000X0.300000*%
G04 #@! TD*
G04 #@! TA.AperFunction,SMDPad,CuDef*
%ADD26R,0.600000X0.600000*%
G04 #@! TD*
G04 #@! TA.AperFunction,SMDPad,CuDef*
%ADD27R,1.524000X1.524000*%
G04 #@! TD*
G04 #@! TA.AperFunction,BGAPad,CuDef*
%ADD28C,1.524000*%
G04 #@! TD*
G04 #@! TA.AperFunction,SMDPad,CuDef*
%ADD29R,0.635000X1.143000*%
G04 #@! TD*
G04 #@! TA.AperFunction,SMDPad,CuDef*
%ADD30R,0.900000X0.800000*%
G04 #@! TD*
G04 #@! TA.AperFunction,SMDPad,CuDef*
%ADD31R,0.800000X1.600000*%
G04 #@! TD*
G04 #@! TA.AperFunction,SMDPad,CuDef*
%ADD32R,0.200000X0.800000*%
G04 #@! TD*
G04 #@! TA.AperFunction,SMDPad,CuDef*
%ADD33R,0.800000X0.200000*%
G04 #@! TD*
G04 #@! TA.AperFunction,SMDPad,CuDef*
%ADD34R,1.112500X1.112500*%
G04 #@! TD*
G04 #@! TA.AperFunction,SMDPad,CuDef*
%ADD35R,0.600000X1.100000*%
G04 #@! TD*
G04 #@! TA.AperFunction,SMDPad,CuDef*
%ADD36R,0.500000X0.600000*%
G04 #@! TD*
G04 #@! TA.AperFunction,SMDPad,CuDef*
%ADD37R,0.750000X0.300000*%
G04 #@! TD*
G04 #@! TA.AperFunction,SMDPad,CuDef*
%ADD38R,0.875000X0.725000*%
G04 #@! TD*
G04 #@! TA.AperFunction,SMDPad,CuDef*
%ADD39R,0.400000X0.700000*%
G04 #@! TD*
G04 #@! TA.AperFunction,SMDPad,CuDef*
%ADD40R,0.400000X0.250000*%
G04 #@! TD*
G04 #@! TA.AperFunction,SMDPad,CuDef*
%ADD41R,0.900000X0.500000*%
G04 #@! TD*
G04 #@! TA.AperFunction,SMDPad,CuDef*
%ADD42R,1.540000X1.540000*%
G04 #@! TD*
G04 #@! TA.AperFunction,SMDPad,CuDef*
%ADD43R,0.500000X0.200000*%
G04 #@! TD*
G04 #@! TA.AperFunction,SMDPad,CuDef*
%ADD44R,0.550000X0.200000*%
G04 #@! TD*
G04 #@! TA.AperFunction,SMDPad,CuDef*
%ADD45R,0.200000X0.500000*%
G04 #@! TD*
G04 #@! TA.AperFunction,SMDPad,CuDef*
%ADD46R,0.200000X0.550000*%
G04 #@! TD*
G04 #@! TA.AperFunction,ViaPad*
%ADD47C,0.508000*%
G04 #@! TD*
G04 #@! TA.AperFunction,Conductor*
%ADD48C,0.152000*%
G04 #@! TD*
G04 #@! TA.AperFunction,Conductor*
%ADD49C,0.457200*%
G04 #@! TD*
G04 #@! TA.AperFunction,Conductor*
%ADD50C,0.460000*%
G04 #@! TD*
G04 #@! TA.AperFunction,Conductor*
%ADD51C,0.229000*%
G04 #@! TD*
G04 #@! TA.AperFunction,Conductor*
%ADD52C,0.152400*%
G04 #@! TD*
G04 #@! TA.AperFunction,Conductor*
%ADD53C,0.254000*%
G04 #@! TD*
G04 APERTURE END LIST*
D10*
G04 #@! TO.P,U5,A2*
G04 #@! TO.N,VCC*
X275570001Y-143170001D03*
G04 #@! TO.P,U5,A1*
G04 #@! TO.N,Net-(L2-Pad1)*
X275170001Y-143170001D03*
G04 #@! TO.P,U5,B1*
G04 #@! TO.N,VCC*
X275170001Y-143570001D03*
G04 #@! TO.P,U5,B2*
G04 #@! TO.N,DGND*
X275570001Y-143570001D03*
G04 #@! TO.P,U5,C2*
G04 #@! TO.N,1.8V*
X275570001Y-143970001D03*
G04 #@! TO.P,U5,C1*
G04 #@! TO.N,VCC*
X275170001Y-143970001D03*
G04 #@! TO.P,U5,D1*
G04 #@! TO.N,/LOAD_SW_CTRL*
X275170001Y-144370001D03*
G04 #@! TO.P,U5,D2*
G04 #@! TO.N,Net-(R5-Pad1)*
X275570001Y-144370001D03*
G04 #@! TD*
D11*
G04 #@! TO.P,C14,1*
G04 #@! TO.N,VCC*
X277550000Y-142475840D03*
G04 #@! TO.P,C14,2*
G04 #@! TO.N,DGND*
X277550000Y-143375000D03*
G04 #@! TD*
D12*
G04 #@! TO.P,C19,2*
G04 #@! TO.N,DGND*
X289174580Y-126425000D03*
G04 #@! TO.P,C19,1*
G04 #@! TO.N,1.8V*
X288275420Y-126425000D03*
G04 #@! TD*
D13*
G04 #@! TO.P,S1,3*
G04 #@! TO.N,VCC*
X281075000Y-144575000D03*
G04 #@! TO.P,S1,2*
G04 #@! TO.N,Net-(S1-Pad2)*
X282075000Y-144575000D03*
G04 #@! TO.P,S1,1*
G04 #@! TO.N,VccSwitch*
X280075000Y-144575000D03*
D14*
G04 #@! TO.P,S1,4*
G04 #@! TO.N,DGND*
X278075000Y-145930000D03*
G04 #@! TO.P,S1,5*
X284075000Y-145930000D03*
G04 #@! TD*
D15*
G04 #@! TO.P,P3,1*
G04 #@! TO.N,5V_in_charge*
X295990000Y-144510000D03*
D16*
G04 #@! TO.P,P3,2*
G04 #@! TO.N,DGND*
X295990000Y-141970000D03*
G04 #@! TD*
D15*
G04 #@! TO.P,P5,1*
G04 #@! TO.N,/IN2*
X296270000Y-126950000D03*
D16*
G04 #@! TO.P,P5,2*
G04 #@! TO.N,/IN2-*
X296270000Y-129490000D03*
G04 #@! TO.P,P5,3*
G04 #@! TO.N,/IN1*
X296270000Y-132030000D03*
G04 #@! TO.P,P5,4*
G04 #@! TO.N,/IN1-*
X296270000Y-134570000D03*
G04 #@! TD*
D12*
G04 #@! TO.P,R5,1*
G04 #@! TO.N,Net-(R5-Pad1)*
X278850000Y-143325000D03*
G04 #@! TO.P,R5,2*
G04 #@! TO.N,/AIN_BAT_DIV_VOLTAGE*
X279749160Y-143325000D03*
G04 #@! TD*
D17*
G04 #@! TO.P,D4,2*
G04 #@! TO.N,5V_in_charge*
X289520000Y-142980000D03*
G04 #@! TO.P,D4,1*
G04 #@! TO.N,VccSwitch*
X289520000Y-141380000D03*
G04 #@! TD*
D12*
G04 #@! TO.P,C18,1*
G04 #@! TO.N,DGND*
X288310420Y-144010000D03*
G04 #@! TO.P,C18,2*
G04 #@! TO.N,VccSwitch*
X289209580Y-144010000D03*
G04 #@! TD*
G04 #@! TO.P,R10,1*
G04 #@! TO.N,5V_in_charge*
X286530420Y-144010000D03*
G04 #@! TO.P,R10,2*
G04 #@! TO.N,DGND*
X287429580Y-144010000D03*
G04 #@! TD*
G04 #@! TO.P,C16,1*
G04 #@! TO.N,5V_in_charge*
X285199580Y-144020000D03*
G04 #@! TO.P,C16,2*
G04 #@! TO.N,DGND*
X284300420Y-144020000D03*
G04 #@! TD*
D11*
G04 #@! TO.P,R9,1*
G04 #@! TO.N,Net-(R9-Pad1)*
X282140000Y-142639580D03*
G04 #@! TO.P,R9,2*
G04 #@! TO.N,DGND*
X282140000Y-141740420D03*
G04 #@! TD*
G04 #@! TO.P,C17,1*
G04 #@! TO.N,/BATT_IN*
X287490000Y-141469580D03*
G04 #@! TO.P,C17,2*
G04 #@! TO.N,DGND*
X287490000Y-140570420D03*
G04 #@! TD*
D17*
G04 #@! TO.P,D3,2*
G04 #@! TO.N,DVDD*
X282240000Y-140050000D03*
G04 #@! TO.P,D3,1*
G04 #@! TO.N,Net-(D3-Pad1)*
X283840000Y-140050000D03*
G04 #@! TD*
D11*
G04 #@! TO.P,C22,1*
G04 #@! TO.N,DVDD*
X281800000Y-137320420D03*
G04 #@! TO.P,C22,2*
G04 #@! TO.N,DGND*
X281800000Y-138219580D03*
G04 #@! TD*
D12*
G04 #@! TO.P,R7,1*
G04 #@! TO.N,DGND*
X278850000Y-142300000D03*
G04 #@! TO.P,R7,2*
G04 #@! TO.N,/AIN_BAT_DIV_VOLTAGE*
X279749160Y-142300000D03*
G04 #@! TD*
D11*
G04 #@! TO.P,C15,1*
G04 #@! TO.N,1.8V*
X276550000Y-144250000D03*
G04 #@! TO.P,C15,2*
G04 #@! TO.N,DGND*
X276550000Y-143350840D03*
G04 #@! TD*
D18*
G04 #@! TO.P,U2,1*
G04 #@! TO.N,Net-(C3-Pad1)*
X288660000Y-136870000D03*
D19*
G04 #@! TO.P,U2,2*
G04 #@! TO.N,Net-(C3-Pad2)*
X288660000Y-136470000D03*
G04 #@! TO.P,U2,3*
G04 #@! TO.N,Net-(R1-Pad1)*
X288660000Y-136070000D03*
G04 #@! TO.P,U2,4*
G04 #@! TO.N,Net-(R2-Pad1)*
X288660000Y-135670000D03*
G04 #@! TO.P,U2,5*
G04 #@! TO.N,Net-(R3-Pad1)*
X288660000Y-135270000D03*
G04 #@! TO.P,U2,6*
G04 #@! TO.N,Net-(R4-Pad1)*
X288660000Y-134870000D03*
G04 #@! TO.P,U2,7*
G04 #@! TO.N,Net-(C5-Pad1)*
X288660000Y-134470000D03*
D18*
G04 #@! TO.P,U2,8*
G04 #@! TO.N,Net-(C5-Pad2)*
X288660000Y-134070000D03*
D20*
G04 #@! TO.P,U2,9*
G04 #@! TO.N,Net-(C10-Pad2)*
X288160000Y-133570000D03*
D21*
G04 #@! TO.P,U2,10*
G04 #@! TO.N,DGND*
X287760000Y-133570000D03*
G04 #@! TO.P,U2,11*
G04 #@! TO.N,Net-(C9-Pad1)*
X287360000Y-133570000D03*
G04 #@! TO.P,U2,12*
G04 #@! TO.N,DVDD*
X286960000Y-133570000D03*
G04 #@! TO.P,U2,13*
G04 #@! TO.N,DGND*
X286560000Y-133570000D03*
G04 #@! TO.P,U2,14*
G04 #@! TO.N,DVDD*
X286160000Y-133570000D03*
G04 #@! TO.P,U2,15*
G04 #@! TO.N,/~PWDN/RESET*
X285760000Y-133570000D03*
D20*
G04 #@! TO.P,U2,16*
G04 #@! TO.N,DGND*
X285360000Y-133570000D03*
D18*
G04 #@! TO.P,U2,17*
G04 #@! TO.N,Net-(U2-Pad17)*
X284860000Y-134070000D03*
D19*
G04 #@! TO.P,U2,18*
G04 #@! TO.N,/SPI_~CS*
X284860000Y-134470000D03*
G04 #@! TO.P,U2,19*
G04 #@! TO.N,/DIN*
X284860000Y-134870000D03*
G04 #@! TO.P,U2,20*
G04 #@! TO.N,/SPI_SCLK*
X284860000Y-135270000D03*
G04 #@! TO.P,U2,21*
G04 #@! TO.N,/DOUT*
X284860000Y-135670000D03*
G04 #@! TO.P,U2,22*
G04 #@! TO.N,/~DRDY*
X284860000Y-136070000D03*
G04 #@! TO.P,U2,23*
G04 #@! TO.N,DVDD*
X284860000Y-136470000D03*
D18*
G04 #@! TO.P,U2,24*
G04 #@! TO.N,DGND*
X284860000Y-136870000D03*
D20*
G04 #@! TO.P,U2,25*
G04 #@! TO.N,Net-(U2-Pad25)*
X285360000Y-137370000D03*
D21*
G04 #@! TO.P,U2,26*
G04 #@! TO.N,Net-(U2-Pad26)*
X285760000Y-137370000D03*
G04 #@! TO.P,U2,27*
G04 #@! TO.N,Net-(C11-Pad1)*
X286160000Y-137370000D03*
G04 #@! TO.P,U2,28*
G04 #@! TO.N,Net-(C4-Pad1)*
X286560000Y-137370000D03*
G04 #@! TO.P,U2,29*
G04 #@! TO.N,/BIASIN*
X286960000Y-137370000D03*
G04 #@! TO.P,U2,30*
X287360000Y-137370000D03*
G04 #@! TO.P,U2,31*
G04 #@! TO.N,DVDD*
X287760000Y-137370000D03*
D20*
G04 #@! TO.P,U2,32*
X288160000Y-137370000D03*
D22*
G04 #@! TO.P,U2,33*
G04 #@! TO.N,DGND*
X286097500Y-134807500D03*
X286097500Y-136132500D03*
X287422500Y-134807500D03*
X287422500Y-136132500D03*
G04 #@! TD*
D11*
G04 #@! TO.P,C5,1*
G04 #@! TO.N,Net-(C5-Pad1)*
X289890000Y-133899580D03*
G04 #@! TO.P,C5,2*
G04 #@! TO.N,Net-(C5-Pad2)*
X289890000Y-133000420D03*
G04 #@! TD*
G04 #@! TO.P,C3,1*
G04 #@! TO.N,Net-(C3-Pad1)*
X289600000Y-138359580D03*
G04 #@! TO.P,C3,2*
G04 #@! TO.N,Net-(C3-Pad2)*
X289600000Y-137460420D03*
G04 #@! TD*
G04 #@! TO.P,C13,1*
G04 #@! TO.N,DVDD*
X283830000Y-136610420D03*
G04 #@! TO.P,C13,2*
G04 #@! TO.N,DGND*
X283830000Y-137509580D03*
G04 #@! TD*
G04 #@! TO.P,C12,1*
G04 #@! TO.N,DVDD*
X282840000Y-136610420D03*
G04 #@! TO.P,C12,2*
G04 #@! TO.N,DGND*
X282840000Y-137509580D03*
G04 #@! TD*
D12*
G04 #@! TO.P,C8,1*
G04 #@! TO.N,DGND*
X286320420Y-130570000D03*
G04 #@! TO.P,C8,2*
G04 #@! TO.N,DVDD*
X287219580Y-130570000D03*
G04 #@! TD*
D11*
G04 #@! TO.P,C10,1*
G04 #@! TO.N,DGND*
X290600000Y-131190420D03*
G04 #@! TO.P,C10,2*
G04 #@! TO.N,Net-(C10-Pad2)*
X290600000Y-132089580D03*
G04 #@! TD*
D12*
G04 #@! TO.P,C7,1*
G04 #@! TO.N,DGND*
X286320420Y-131520000D03*
G04 #@! TO.P,C7,2*
G04 #@! TO.N,DVDD*
X287219580Y-131520000D03*
G04 #@! TD*
D23*
G04 #@! TO.P,U1,1*
G04 #@! TO.N,DVDD*
X269320000Y-140200000D03*
G04 #@! TO.P,U1,2*
G04 #@! TO.N,Net-(L1-Pad2)*
X268820000Y-140200000D03*
G04 #@! TO.P,U1,3*
G04 #@! TO.N,DGND*
X268320000Y-140200000D03*
G04 #@! TO.P,U1,4*
G04 #@! TO.N,Net-(L1-Pad1)*
X267820000Y-140200000D03*
G04 #@! TO.P,U1,5*
G04 #@! TO.N,VCC*
X267320000Y-140200000D03*
G04 #@! TO.P,U1,6*
X267320000Y-143300000D03*
G04 #@! TO.P,U1,7*
X267820000Y-143300000D03*
G04 #@! TO.P,U1,8*
X268320000Y-143300000D03*
G04 #@! TO.P,U1,9*
G04 #@! TO.N,DGND*
X268820000Y-143300000D03*
G04 #@! TO.P,U1,10*
G04 #@! TO.N,DVDD*
X269320000Y-143300000D03*
D24*
G04 #@! TO.P,U1,11*
G04 #@! TO.N,DGND*
X267700000Y-142137500D03*
X268940000Y-142137500D03*
X267700000Y-141362500D03*
X268940000Y-141362500D03*
G04 #@! TD*
D12*
G04 #@! TO.P,L1,1*
G04 #@! TO.N,Net-(L1-Pad1)*
X267990420Y-138970000D03*
G04 #@! TO.P,L1,2*
G04 #@! TO.N,Net-(L1-Pad2)*
X268889580Y-138970000D03*
G04 #@! TD*
D11*
G04 #@! TO.P,C4,1*
G04 #@! TO.N,Net-(C4-Pad1)*
X291385000Y-139909580D03*
G04 #@! TO.P,C4,2*
G04 #@! TO.N,/BIASIN*
X291385000Y-139010420D03*
G04 #@! TD*
G04 #@! TO.P,C21,1*
G04 #@! TO.N,DGND*
X274070000Y-139049580D03*
G04 #@! TO.P,C21,2*
G04 #@! TO.N,DVDD*
X274070000Y-138150420D03*
G04 #@! TD*
D12*
G04 #@! TO.P,R12,1*
G04 #@! TO.N,1.8V*
X285179580Y-130610000D03*
G04 #@! TO.P,R12,2*
G04 #@! TO.N,/SDI*
X284280420Y-130610000D03*
G04 #@! TD*
D11*
G04 #@! TO.P,R11,1*
G04 #@! TO.N,1.8V*
X283375000Y-127850840D03*
G04 #@! TO.P,R11,2*
G04 #@! TO.N,/SCL*
X283375000Y-128750000D03*
G04 #@! TD*
D12*
G04 #@! TO.P,C36,1*
G04 #@! TO.N,1.8V*
X288200000Y-128350000D03*
G04 #@! TO.P,C36,2*
G04 #@! TO.N,DGND*
X289099160Y-128350000D03*
G04 #@! TD*
G04 #@! TO.P,C35,1*
G04 #@! TO.N,Net-(C35-Pad1)*
X288225420Y-127425000D03*
G04 #@! TO.P,C35,2*
G04 #@! TO.N,DGND*
X289124580Y-127425000D03*
G04 #@! TD*
D25*
G04 #@! TO.P,F1,1*
G04 #@! TO.N,DGND*
X278326500Y-128500000D03*
D26*
G04 #@! TO.P,F1,2*
G04 #@! TO.N,Net-(F1-Pad2)*
X278000000Y-129112500D03*
G04 #@! TO.P,F1,4*
G04 #@! TO.N,/RF*
X278000000Y-127887500D03*
D25*
G04 #@! TO.P,F1,3*
G04 #@! TO.N,DGND*
X277637500Y-128500000D03*
G04 #@! TD*
D11*
G04 #@! TO.P,C34,1*
G04 #@! TO.N,/DEC3*
X275840000Y-129489580D03*
G04 #@! TO.P,C34,2*
G04 #@! TO.N,DGND*
X275840000Y-128590420D03*
G04 #@! TD*
D12*
G04 #@! TO.P,C33,1*
G04 #@! TO.N,DGND*
X273150420Y-129450000D03*
G04 #@! TO.P,C33,2*
G04 #@! TO.N,DVDD*
X274049580Y-129450000D03*
G04 #@! TD*
D27*
G04 #@! TO.P,P2,1*
G04 #@! TO.N,/SWDCLK*
X281500000Y-129560000D03*
D28*
G04 #@! TO.P,P2,2*
G04 #@! TO.N,/SWDIO*
X281500000Y-127020000D03*
G04 #@! TD*
D17*
G04 #@! TO.P,D2,2*
G04 #@! TO.N,DVDD*
X280490000Y-140050000D03*
G04 #@! TO.P,D2,1*
G04 #@! TO.N,/LED3*
X280490000Y-138450000D03*
G04 #@! TD*
D12*
G04 #@! TO.P,C11,1*
G04 #@! TO.N,Net-(C11-Pad1)*
X285889580Y-138790000D03*
G04 #@! TO.P,C11,2*
G04 #@! TO.N,DGND*
X284990420Y-138790000D03*
G04 #@! TD*
D11*
G04 #@! TO.P,C6,1*
G04 #@! TO.N,DGND*
X289500000Y-131220420D03*
G04 #@! TO.P,C6,2*
G04 #@! TO.N,Net-(C10-Pad2)*
X289500000Y-132119580D03*
G04 #@! TD*
G04 #@! TO.P,C2,1*
G04 #@! TO.N,DVDD*
X271040000Y-142899580D03*
G04 #@! TO.P,C2,2*
G04 #@! TO.N,DGND*
X271040000Y-142000420D03*
G04 #@! TD*
G04 #@! TO.P,C1,1*
G04 #@! TO.N,VCC*
X272140000Y-142909580D03*
G04 #@! TO.P,C1,2*
G04 #@! TO.N,DGND*
X272140000Y-142010420D03*
G04 #@! TD*
G04 #@! TO.P,R6,1*
G04 #@! TO.N,Net-(C4-Pad1)*
X292485000Y-139909580D03*
G04 #@! TO.P,R6,2*
G04 #@! TO.N,/BIASIN*
X292485000Y-139010420D03*
G04 #@! TD*
D12*
G04 #@! TO.P,R4,1*
G04 #@! TO.N,Net-(R4-Pad1)*
X290940420Y-134190000D03*
G04 #@! TO.P,R4,2*
G04 #@! TO.N,/IN2*
X291839580Y-134190000D03*
G04 #@! TD*
G04 #@! TO.P,R3,1*
G04 #@! TO.N,Net-(R3-Pad1)*
X291520420Y-135270000D03*
G04 #@! TO.P,R3,2*
G04 #@! TO.N,/IN2-*
X292419580Y-135270000D03*
G04 #@! TD*
G04 #@! TO.P,R2,1*
G04 #@! TO.N,Net-(R2-Pad1)*
X290950420Y-136290000D03*
G04 #@! TO.P,R2,2*
G04 #@! TO.N,/IN1*
X291849580Y-136290000D03*
G04 #@! TD*
G04 #@! TO.P,R1,1*
G04 #@! TO.N,Net-(R1-Pad1)*
X291560420Y-137280000D03*
G04 #@! TO.P,R1,2*
G04 #@! TO.N,/IN1-*
X292459580Y-137280000D03*
G04 #@! TD*
D17*
G04 #@! TO.P,D1,2*
G04 #@! TO.N,DVDD*
X279240000Y-140050000D03*
G04 #@! TO.P,D1,1*
G04 #@! TO.N,/LED2*
X279240000Y-138450000D03*
G04 #@! TD*
D27*
G04 #@! TO.P,P1,1*
G04 #@! TO.N,/BATT_IN*
X292380000Y-144450000D03*
D28*
G04 #@! TO.P,P1,2*
G04 #@! TO.N,DGND*
X292380000Y-141910000D03*
G04 #@! TD*
D29*
G04 #@! TO.P,L4,1*
G04 #@! TO.N,Net-(L4-Pad1)*
X272932000Y-138620000D03*
G04 #@! TO.P,L4,2*
G04 #@! TO.N,Net-(L3-Pad1)*
X271408000Y-138620000D03*
G04 #@! TD*
D30*
G04 #@! TO.P,X1,4*
G04 #@! TO.N,DGND*
X270800000Y-133500000D03*
G04 #@! TO.P,X1,3*
G04 #@! TO.N,Net-(C25-Pad2)*
X272200000Y-133500000D03*
G04 #@! TO.P,X1,1*
G04 #@! TO.N,Net-(C24-Pad2)*
X270800000Y-134600000D03*
G04 #@! TO.P,X1,2*
G04 #@! TO.N,DGND*
X272200000Y-134600000D03*
G04 #@! TD*
D11*
G04 #@! TO.P,C28,1*
G04 #@! TO.N,Net-(C28-Pad1)*
X275450000Y-140100420D03*
G04 #@! TO.P,C28,2*
G04 #@! TO.N,DGND*
X275450000Y-140999580D03*
G04 #@! TD*
D12*
G04 #@! TO.P,C26,1*
G04 #@! TO.N,/DEC1*
X273649580Y-140200000D03*
G04 #@! TO.P,C26,2*
G04 #@! TO.N,DGND*
X272750420Y-140200000D03*
G04 #@! TD*
D11*
G04 #@! TO.P,C24,1*
G04 #@! TO.N,DGND*
X269800000Y-133750420D03*
G04 #@! TO.P,C24,2*
G04 #@! TO.N,Net-(C24-Pad2)*
X269800000Y-134649580D03*
G04 #@! TD*
G04 #@! TO.P,C25,1*
G04 #@! TO.N,DGND*
X273200000Y-134549580D03*
G04 #@! TO.P,C25,2*
G04 #@! TO.N,Net-(C25-Pad2)*
X273200000Y-133650420D03*
G04 #@! TD*
G04 #@! TO.P,C29,1*
G04 #@! TO.N,Net-(C29-Pad1)*
X276850000Y-140100420D03*
G04 #@! TO.P,C29,2*
G04 #@! TO.N,DGND*
X276850000Y-140999580D03*
G04 #@! TD*
D31*
G04 #@! TO.P,A1,1*
G04 #@! TO.N,Net-(A1-Pad1)*
X270745000Y-127673000D03*
G04 #@! TO.P,A1,2*
G04 #@! TO.N,Net-(A1-Pad2)*
X267345000Y-127673000D03*
G04 #@! TD*
D12*
G04 #@! TO.P,L6,1*
G04 #@! TO.N,Net-(C30-Pad2)*
X272849580Y-127700000D03*
G04 #@! TO.P,L6,2*
G04 #@! TO.N,Net-(A1-Pad1)*
X271950420Y-127700000D03*
G04 #@! TD*
D11*
G04 #@! TO.P,L5,1*
G04 #@! TO.N,Net-(C30-Pad2)*
X274000000Y-127650420D03*
G04 #@! TO.P,L5,2*
G04 #@! TO.N,DGND*
X274000000Y-128549580D03*
G04 #@! TD*
D12*
G04 #@! TO.P,C30,1*
G04 #@! TO.N,/RF*
X276049580Y-127700000D03*
G04 #@! TO.P,C30,2*
G04 #@! TO.N,Net-(C30-Pad2)*
X275150420Y-127700000D03*
G04 #@! TD*
G04 #@! TO.P,L3,1*
G04 #@! TO.N,Net-(L3-Pad1)*
X271730420Y-137270000D03*
G04 #@! TO.P,L3,2*
G04 #@! TO.N,Net-(C23-Pad1)*
X272629580Y-137270000D03*
G04 #@! TD*
D29*
G04 #@! TO.P,C23,1*
G04 #@! TO.N,Net-(C23-Pad1)*
X273262000Y-136000000D03*
G04 #@! TO.P,C23,2*
G04 #@! TO.N,DGND*
X271738000Y-136000000D03*
G04 #@! TD*
D15*
G04 #@! TO.P,P4,1*
G04 #@! TO.N,/BIASIN*
X296270000Y-137280000D03*
G04 #@! TD*
D32*
G04 #@! TO.P,U3,1*
G04 #@! TO.N,/DEC1*
X275600000Y-137000000D03*
G04 #@! TO.P,U3,2*
G04 #@! TO.N,Net-(C28-Pad1)*
X276000000Y-137000000D03*
G04 #@! TO.P,U3,3*
G04 #@! TO.N,Net-(C29-Pad1)*
X276400000Y-137000000D03*
G04 #@! TO.P,U3,4*
G04 #@! TO.N,Net-(U3-Pad4)*
X276800000Y-137000000D03*
G04 #@! TO.P,U3,5*
G04 #@! TO.N,Net-(U3-Pad5)*
X277200000Y-137000000D03*
G04 #@! TO.P,U3,6*
G04 #@! TO.N,/LOAD_SW_CTRL*
X277600000Y-137000000D03*
G04 #@! TO.P,U3,7*
G04 #@! TO.N,/AIN_BAT_DIV_VOLTAGE*
X278000000Y-137000000D03*
G04 #@! TO.P,U3,8*
G04 #@! TO.N,Net-(U3-Pad8)*
X278400000Y-137000000D03*
G04 #@! TO.P,U3,9*
G04 #@! TO.N,Net-(U3-Pad9)*
X278800000Y-137000000D03*
G04 #@! TO.P,U3,10*
G04 #@! TO.N,Net-(U3-Pad10)*
X279200000Y-137000000D03*
G04 #@! TO.P,U3,11*
G04 #@! TO.N,/LED2*
X279600000Y-137000000D03*
G04 #@! TO.P,U3,12*
G04 #@! TO.N,/LED3*
X280000000Y-137000000D03*
D33*
G04 #@! TO.P,U3,13*
G04 #@! TO.N,DVDD*
X280800000Y-136200000D03*
G04 #@! TO.P,U3,14*
G04 #@! TO.N,/~DRDY*
X280800000Y-135800000D03*
G04 #@! TO.P,U3,15*
G04 #@! TO.N,/DOUT*
X280800000Y-135400000D03*
G04 #@! TO.P,U3,16*
G04 #@! TO.N,/SPI_SCLK*
X280800000Y-135000000D03*
G04 #@! TO.P,U3,17*
G04 #@! TO.N,/DIN*
X280800000Y-134600000D03*
G04 #@! TO.P,U3,18*
G04 #@! TO.N,/SPI_~CS*
X280800000Y-134200000D03*
G04 #@! TO.P,U3,19*
G04 #@! TO.N,/~PWDN/RESET*
X280800000Y-133800000D03*
G04 #@! TO.P,U3,20*
G04 #@! TO.N,Net-(U3-Pad20)*
X280800000Y-133400000D03*
G04 #@! TO.P,U3,21*
G04 #@! TO.N,Net-(U3-Pad21)*
X280800000Y-133000000D03*
G04 #@! TO.P,U3,22*
G04 #@! TO.N,Net-(U3-Pad22)*
X280800000Y-132600000D03*
G04 #@! TO.P,U3,23*
G04 #@! TO.N,/SDI*
X280800000Y-132200000D03*
G04 #@! TO.P,U3,24*
G04 #@! TO.N,/SCL*
X280800000Y-131800000D03*
D32*
G04 #@! TO.P,U3,25*
G04 #@! TO.N,/SWDCLK*
X280000000Y-131000000D03*
G04 #@! TO.P,U3,26*
G04 #@! TO.N,/SWDIO*
X279600000Y-131000000D03*
G04 #@! TO.P,U3,27*
G04 #@! TO.N,Net-(U3-Pad27)*
X279200000Y-131000000D03*
G04 #@! TO.P,U3,28*
G04 #@! TO.N,Net-(U3-Pad28)*
X278800000Y-131000000D03*
G04 #@! TO.P,U3,29*
G04 #@! TO.N,Net-(U3-Pad29)*
X278400000Y-131000000D03*
G04 #@! TO.P,U3,30*
G04 #@! TO.N,Net-(F1-Pad2)*
X278000000Y-131000000D03*
G04 #@! TO.P,U3,31*
G04 #@! TO.N,DGND*
X277600000Y-131000000D03*
G04 #@! TO.P,U3,32*
G04 #@! TO.N,/DEC2*
X277200000Y-131000000D03*
G04 #@! TO.P,U3,33*
G04 #@! TO.N,/DEC3*
X276800000Y-131000000D03*
G04 #@! TO.P,U3,34*
G04 #@! TO.N,Net-(C24-Pad2)*
X276400000Y-131000000D03*
G04 #@! TO.P,U3,35*
G04 #@! TO.N,Net-(C25-Pad2)*
X276000000Y-131000000D03*
G04 #@! TO.P,U3,36*
G04 #@! TO.N,DVDD*
X275600000Y-131000000D03*
D33*
G04 #@! TO.P,U3,37*
G04 #@! TO.N,Net-(U3-Pad37)*
X274800000Y-131800000D03*
G04 #@! TO.P,U3,38*
G04 #@! TO.N,Net-(U3-Pad38)*
X274800000Y-132200000D03*
G04 #@! TO.P,U3,39*
G04 #@! TO.N,Net-(U3-Pad39)*
X274800000Y-132600000D03*
G04 #@! TO.P,U3,40*
G04 #@! TO.N,Net-(U3-Pad40)*
X274800000Y-133000000D03*
G04 #@! TO.P,U3,41*
G04 #@! TO.N,Net-(U3-Pad41)*
X274800000Y-133400000D03*
G04 #@! TO.P,U3,42*
G04 #@! TO.N,Net-(U3-Pad42)*
X274800000Y-133800000D03*
G04 #@! TO.P,U3,43*
G04 #@! TO.N,Net-(U3-Pad43)*
X274800000Y-134200000D03*
G04 #@! TO.P,U3,44*
G04 #@! TO.N,Net-(U3-Pad44)*
X274800000Y-134600000D03*
G04 #@! TO.P,U3,45*
G04 #@! TO.N,DGND*
X274800000Y-135000000D03*
G04 #@! TO.P,U3,46*
G04 #@! TO.N,Net-(C23-Pad1)*
X274800000Y-135400000D03*
G04 #@! TO.P,U3,47*
G04 #@! TO.N,Net-(L4-Pad1)*
X274800000Y-135800000D03*
G04 #@! TO.P,U3,48*
G04 #@! TO.N,DVDD*
X274800000Y-136200000D03*
D34*
G04 #@! TO.P,U3,49*
G04 #@! TO.N,DGND*
X279468750Y-132331250D03*
X278356250Y-132331250D03*
X277243750Y-132331250D03*
X276131250Y-132331250D03*
X279468750Y-133443750D03*
X278356250Y-133443750D03*
X277243750Y-133443750D03*
X276131250Y-133443750D03*
X279468750Y-134556250D03*
X278356250Y-134556250D03*
X277243750Y-134556250D03*
X276131250Y-134556250D03*
X279468750Y-135668750D03*
X278356250Y-135668750D03*
X277243750Y-135668750D03*
X276131250Y-135668750D03*
G04 #@! TD*
D35*
G04 #@! TO.P,X2,1*
G04 #@! TO.N,Net-(C29-Pad1)*
X276850000Y-138850000D03*
G04 #@! TO.P,X2,2*
G04 #@! TO.N,Net-(C28-Pad1)*
X275450000Y-138850000D03*
G04 #@! TD*
D36*
G04 #@! TO.P,C9,1*
G04 #@! TO.N,Net-(C9-Pad1)*
X288280000Y-131610000D03*
G04 #@! TO.P,C9,2*
G04 #@! TO.N,DGND*
X288280000Y-130510000D03*
G04 #@! TD*
D37*
G04 #@! TO.P,U6,1*
G04 #@! TO.N,5V_in_charge*
X286210000Y-142890000D03*
G04 #@! TO.P,U6,2*
X286210000Y-142390000D03*
G04 #@! TO.P,U6,3*
G04 #@! TO.N,/BATT_IN*
X286210000Y-141890000D03*
G04 #@! TO.P,U6,4*
X286210000Y-141390000D03*
G04 #@! TO.P,U6,5*
G04 #@! TO.N,Net-(D3-Pad1)*
X283310000Y-141390000D03*
G04 #@! TO.P,U6,6*
G04 #@! TO.N,DGND*
X283310000Y-141890000D03*
G04 #@! TO.P,U6,7*
G04 #@! TO.N,Net-(U6-Pad7)*
X283310000Y-142390000D03*
G04 #@! TO.P,U6,8*
G04 #@! TO.N,Net-(R9-Pad1)*
X283310000Y-142890000D03*
D38*
G04 #@! TO.P,U6,9*
G04 #@! TO.N,DGND*
X284322500Y-141777500D03*
X284322500Y-142502500D03*
X285197500Y-141777500D03*
X285197500Y-142502500D03*
G04 #@! TD*
D39*
G04 #@! TO.P,Q1,2*
G04 #@! TO.N,/BATT_IN*
X287610000Y-142730000D03*
D40*
G04 #@! TO.P,Q1,1*
G04 #@! TO.N,5V_in_charge*
X288310000Y-142955000D03*
G04 #@! TO.P,Q1,3*
G04 #@! TO.N,VccSwitch*
X288310000Y-142505000D03*
G04 #@! TD*
D41*
G04 #@! TO.P,L2,2*
G04 #@! TO.N,1.8V*
X273650000Y-144675000D03*
G04 #@! TO.P,L2,1*
G04 #@! TO.N,Net-(L2-Pad1)*
X273650000Y-143175000D03*
G04 #@! TD*
D42*
G04 #@! TO.P,U4,25*
G04 #@! TO.N,DGND*
X285775000Y-127700000D03*
D43*
G04 #@! TO.P,U4,24*
G04 #@! TO.N,/SDI*
X284275000Y-128700000D03*
D44*
G04 #@! TO.P,U4,23*
G04 #@! TO.N,/SCL*
X284275000Y-128300000D03*
G04 #@! TO.P,U4,22*
G04 #@! TO.N,1.8V*
X284275000Y-127900000D03*
G04 #@! TO.P,U4,21*
G04 #@! TO.N,Net-(U4-Pad21)*
X284275000Y-127500000D03*
G04 #@! TO.P,U4,20*
G04 #@! TO.N,DGND*
X284275000Y-127100000D03*
D43*
G04 #@! TO.P,U4,19*
G04 #@! TO.N,Net-(U4-Pad19)*
X284275000Y-126700000D03*
D45*
G04 #@! TO.P,U4,18*
G04 #@! TO.N,DGND*
X284775000Y-126200000D03*
D46*
G04 #@! TO.P,U4,17*
G04 #@! TO.N,Net-(U4-Pad17)*
X285175000Y-126200000D03*
G04 #@! TO.P,U4,16*
G04 #@! TO.N,Net-(U4-Pad16)*
X285575000Y-126200000D03*
G04 #@! TO.P,U4,15*
G04 #@! TO.N,Net-(U4-Pad15)*
X285975000Y-126200000D03*
G04 #@! TO.P,U4,14*
G04 #@! TO.N,Net-(U4-Pad14)*
X286375000Y-126200000D03*
D45*
G04 #@! TO.P,U4,13*
G04 #@! TO.N,1.8V*
X286775000Y-126200000D03*
D43*
G04 #@! TO.P,U4,12*
G04 #@! TO.N,Net-(U4-Pad12)*
X287275000Y-126700000D03*
D44*
G04 #@! TO.P,U4,11*
G04 #@! TO.N,Net-(U4-Pad11)*
X287275000Y-127100000D03*
G04 #@! TO.P,U4,10*
G04 #@! TO.N,Net-(C35-Pad1)*
X287275000Y-127500000D03*
G04 #@! TO.P,U4,9*
G04 #@! TO.N,1.8V*
X287275000Y-127900000D03*
G04 #@! TO.P,U4,8*
X287275000Y-128300000D03*
D43*
G04 #@! TO.P,U4,7*
G04 #@! TO.N,Net-(U4-Pad7)*
X287275000Y-128700000D03*
D45*
G04 #@! TO.P,U4,6*
G04 #@! TO.N,Net-(U4-Pad6)*
X286775000Y-129200000D03*
D46*
G04 #@! TO.P,U4,5*
G04 #@! TO.N,Net-(U4-Pad5)*
X286375000Y-129200000D03*
G04 #@! TO.P,U4,4*
G04 #@! TO.N,Net-(U4-Pad4)*
X285975000Y-129200000D03*
G04 #@! TO.P,U4,3*
G04 #@! TO.N,Net-(U4-Pad3)*
X285575000Y-129200000D03*
G04 #@! TO.P,U4,2*
G04 #@! TO.N,Net-(U4-Pad2)*
X285175000Y-129200000D03*
D45*
G04 #@! TO.P,U4,1*
G04 #@! TO.N,Net-(U4-Pad1)*
X284775000Y-129200000D03*
G04 #@! TD*
D47*
G04 #@! TO.N,DVDD*
X281380000Y-139390000D03*
X270070000Y-140110000D03*
X288240000Y-138300000D03*
X287570000Y-129800000D03*
X280880000Y-137160000D03*
X274640000Y-137010000D03*
X275120000Y-130980000D03*
X274580000Y-129450000D03*
X285179580Y-131429580D03*
G04 #@! TO.N,VCC*
X277675000Y-141625000D03*
X281100000Y-145300000D03*
G04 #@! TO.N,DGND*
X287740000Y-139830000D03*
X271200000Y-144600000D03*
X285030000Y-132840000D03*
X268940000Y-142137500D03*
X279070000Y-128500000D03*
X283750000Y-138380000D03*
X286070000Y-134870000D03*
X268986000Y-135610000D03*
X276820000Y-128420000D03*
X292380000Y-141910000D03*
X285775000Y-127700000D03*
G04 #@! TO.N,/BATT_IN*
X290000000Y-145010000D03*
X288340000Y-141140000D03*
G04 #@! TO.N,VccSwitch*
X281700000Y-143700000D03*
X289700000Y-140475000D03*
X290050000Y-144075000D03*
G04 #@! TO.N,1.8V*
X277500000Y-144250000D03*
X273700000Y-144100000D03*
X283300000Y-126425000D03*
X287550000Y-125956400D03*
X288175000Y-129000000D03*
X285450000Y-130100000D03*
G04 #@! TD*
D48*
G04 #@! TO.N,/DEC1*
X274100000Y-140200000D02*
X273649580Y-140200000D01*
X274730000Y-139570000D02*
X274100000Y-140200000D01*
X274730000Y-138010000D02*
X274730000Y-139570000D01*
X275600000Y-137140000D02*
X274730000Y-138010000D01*
X275600000Y-137000000D02*
X275600000Y-137140000D01*
X275600000Y-137000000D02*
X275550000Y-137000000D01*
D49*
G04 #@! TO.N,/RF*
X276049580Y-127700000D02*
X277800000Y-127700000D01*
X277800000Y-127700000D02*
X278000000Y-127900000D01*
D48*
G04 #@! TO.N,/SPI_SCLK*
X280800000Y-135000000D02*
X283390000Y-135000000D01*
X283660000Y-135270000D02*
X284860000Y-135270000D01*
X283390000Y-135000000D02*
X283660000Y-135270000D01*
G04 #@! TO.N,/SPI_~CS*
X280800000Y-134200000D02*
X283840000Y-134200000D01*
X284110000Y-134470000D02*
X284860000Y-134470000D01*
X283840000Y-134200000D02*
X284110000Y-134470000D01*
G04 #@! TO.N,/SWDCLK*
X280000000Y-131000000D02*
X280920000Y-131000000D01*
X281500000Y-130420000D02*
X281500000Y-129560000D01*
X280920000Y-131000000D02*
X281500000Y-130420000D01*
G04 #@! TO.N,/SWDIO*
X279600000Y-131000000D02*
X279600000Y-130480000D01*
X280360000Y-128160000D02*
X281500000Y-127020000D01*
X280360000Y-129720000D02*
X280360000Y-128160000D01*
X279600000Y-130480000D02*
X280360000Y-129720000D01*
G04 #@! TO.N,/~DRDY*
X280800000Y-135800000D02*
X282750000Y-135800000D01*
X283020000Y-136070000D02*
X284860000Y-136070000D01*
X282750000Y-135800000D02*
X283020000Y-136070000D01*
D50*
G04 #@! TO.N,Net-(A1-Pad1)*
X271950420Y-127700000D02*
X270772000Y-127700000D01*
X270772000Y-127700000D02*
X270745000Y-127673000D01*
D48*
G04 #@! TO.N,Net-(L3-Pad1)*
X271408000Y-138620000D02*
X271408000Y-137592420D01*
X271408000Y-137592420D02*
X271730420Y-137270000D01*
G04 #@! TO.N,DVDD*
X282240000Y-140050000D02*
X282040000Y-140050000D01*
X282040000Y-140050000D02*
X281380000Y-139390000D01*
X280490000Y-140050000D02*
X280720000Y-140050000D01*
X280720000Y-140050000D02*
X281380000Y-139390000D01*
X279240000Y-140050000D02*
X280490000Y-140050000D01*
X281800000Y-137320420D02*
X281800000Y-136800000D01*
X281989580Y-136610420D02*
X282840000Y-136610420D01*
X281800000Y-136800000D02*
X281989580Y-136610420D01*
X281800000Y-137320420D02*
X281040420Y-137320420D01*
X281040420Y-137320420D02*
X280880000Y-137160000D01*
X285179580Y-131370000D02*
X285179580Y-131429580D01*
X286160000Y-132410000D02*
X286160000Y-133570000D01*
X285179580Y-131429580D02*
X286160000Y-132410000D01*
X269320000Y-140200000D02*
X269980000Y-140200000D01*
X269980000Y-140200000D02*
X270070000Y-140110000D01*
D51*
X288160000Y-137370000D02*
X288160000Y-138220000D01*
X288160000Y-138220000D02*
X288240000Y-138300000D01*
D48*
X269320000Y-143300000D02*
X270639580Y-143300000D01*
X270639580Y-143300000D02*
X271040000Y-142899580D01*
D51*
X269320000Y-140200000D02*
X269560000Y-140200000D01*
D48*
X269900000Y-142720000D02*
X269320000Y-143300000D01*
X269900000Y-140540000D02*
X269900000Y-142720000D01*
X269560000Y-140200000D02*
X269900000Y-140540000D01*
X287219580Y-130570000D02*
X287219580Y-130150420D01*
X287219580Y-130150420D02*
X287570000Y-129800000D01*
X287219580Y-130570000D02*
X287219580Y-131520000D01*
X280880000Y-137160000D02*
X280880000Y-136970000D01*
X280880000Y-136970000D02*
X280800000Y-136890000D01*
X287760000Y-137370000D02*
X288160000Y-137370000D01*
X286960000Y-133570000D02*
X286960000Y-132330000D01*
X287219580Y-132070420D02*
X287219580Y-131520000D01*
X286960000Y-132330000D02*
X287219580Y-132070420D01*
X284860000Y-136470000D02*
X283970420Y-136470000D01*
X283970420Y-136470000D02*
X283830000Y-136610420D01*
X282840000Y-136610420D02*
X283830000Y-136610420D01*
X280800000Y-136200000D02*
X281760000Y-136200000D01*
X281760000Y-136200000D02*
X282170420Y-136610420D01*
X282170420Y-136610420D02*
X282840000Y-136610420D01*
X274070000Y-138150420D02*
X274070000Y-137580000D01*
X274070000Y-137580000D02*
X274640000Y-137010000D01*
X274660000Y-136990000D02*
X274800000Y-136200000D01*
X274640000Y-137010000D02*
X274660000Y-136990000D01*
X274049580Y-129450000D02*
X274580000Y-129450000D01*
X275140000Y-131000000D02*
X275600000Y-131000000D01*
X275120000Y-130980000D02*
X275140000Y-131000000D01*
X280800000Y-136200000D02*
X280800000Y-136890000D01*
G04 #@! TO.N,/DIN*
X280800000Y-134600000D02*
X283610000Y-134600000D01*
X283860000Y-134850000D02*
X284840000Y-134850000D01*
X283610000Y-134600000D02*
X283860000Y-134850000D01*
X284840000Y-134850000D02*
X284860000Y-134870000D01*
G04 #@! TO.N,/DOUT*
X280800000Y-135400000D02*
X283190000Y-135400000D01*
X283460000Y-135670000D02*
X284860000Y-135670000D01*
X283190000Y-135400000D02*
X283460000Y-135670000D01*
G04 #@! TO.N,/BIASIN*
X287360000Y-137370000D02*
X287360000Y-138120000D01*
X287360000Y-138120000D02*
X288250420Y-139010420D01*
X288250420Y-139010420D02*
X291385000Y-139010420D01*
X291385000Y-139010420D02*
X292485000Y-139010420D01*
X292485000Y-139010420D02*
X293189580Y-139010420D01*
X293189580Y-139010420D02*
X294920000Y-137280000D01*
X294920000Y-137280000D02*
X296270000Y-137280000D01*
X286960000Y-137370000D02*
X287360000Y-137370000D01*
G04 #@! TO.N,/IN2*
X291839580Y-134190000D02*
X291839580Y-129030420D01*
X293920000Y-126950000D02*
X296270000Y-126950000D01*
X291839580Y-129030420D02*
X293920000Y-126950000D01*
G04 #@! TO.N,/IN1*
X291849580Y-136290000D02*
X292500000Y-136290000D01*
X294920000Y-132030000D02*
X296270000Y-132030000D01*
X293590000Y-133360000D02*
X294920000Y-132030000D01*
X293590000Y-135200000D02*
X293590000Y-133360000D01*
X292500000Y-136290000D02*
X293590000Y-135200000D01*
G04 #@! TO.N,VCC*
X268320000Y-143300000D02*
X268320000Y-143730000D01*
X268320000Y-143730000D02*
X268670000Y-144080000D01*
X268670000Y-144080000D02*
X270969580Y-144080000D01*
X270969580Y-144080000D02*
X272140000Y-142909580D01*
X267910420Y-143390420D02*
X267820000Y-143300000D01*
X268320000Y-143300000D02*
X267820000Y-143300000D01*
X267320000Y-143300000D02*
X267820000Y-143300000D01*
X267320000Y-140200000D02*
X267320000Y-140240000D01*
X267320000Y-140240000D02*
X266660000Y-140900000D01*
X267100000Y-143300000D02*
X267320000Y-143300000D01*
X266660000Y-142860000D02*
X267100000Y-143300000D01*
X266660000Y-140900000D02*
X266660000Y-142860000D01*
X276264162Y-142475840D02*
X277550000Y-142475840D01*
X275570001Y-143170001D02*
X276264162Y-142475840D01*
X277550000Y-142475840D02*
X277550000Y-141750000D01*
X277550000Y-141750000D02*
X277675000Y-141625000D01*
D51*
X281100000Y-144600000D02*
X281075000Y-144575000D01*
X281100000Y-145300000D02*
X281100000Y-144600000D01*
D48*
X274826600Y-144068401D02*
X275170001Y-143725000D01*
X274826600Y-144609522D02*
X274826600Y-144068401D01*
X274282721Y-145153401D02*
X274826600Y-144609522D01*
X273017279Y-145153401D02*
X274282721Y-145153401D01*
X272140000Y-144276122D02*
X273017279Y-145153401D01*
X272140000Y-142909580D02*
X272140000Y-144276122D01*
X275170001Y-143570001D02*
X275170001Y-143725000D01*
X275170001Y-143725000D02*
X275170001Y-143970001D01*
X277315790Y-141625000D02*
X277675000Y-141625000D01*
X273876300Y-141625000D02*
X277315790Y-141625000D01*
X272591720Y-142909580D02*
X273876300Y-141625000D01*
X272140000Y-142909580D02*
X272591720Y-142909580D01*
G04 #@! TO.N,Net-(C4-Pad1)*
X286560000Y-137370000D02*
X286560000Y-137800000D01*
X286560000Y-137800000D02*
X288669580Y-139909580D01*
X288669580Y-139909580D02*
X291385000Y-139909580D01*
X292485000Y-139909580D02*
X291385000Y-139909580D01*
D50*
G04 #@! TO.N,Net-(C30-Pad2)*
X274000000Y-127699580D02*
X272850000Y-127699580D01*
X272850000Y-127699580D02*
X272849580Y-127700000D01*
X275150420Y-127700000D02*
X274000420Y-127700000D01*
X274000420Y-127700000D02*
X274000000Y-127699580D01*
D51*
G04 #@! TO.N,Net-(L1-Pad1)*
X267820000Y-140200000D02*
X267820000Y-139140420D01*
X267820000Y-139140420D02*
X267990420Y-138970000D01*
D48*
G04 #@! TO.N,/LED2*
X279600000Y-137000000D02*
X279600000Y-138090000D01*
X279600000Y-138090000D02*
X279240000Y-138450000D01*
G04 #@! TO.N,/LED3*
X280000000Y-137000000D02*
X280000000Y-137960000D01*
X280000000Y-137960000D02*
X280490000Y-138450000D01*
G04 #@! TO.N,/~PWDN/RESET*
X280800000Y-133800000D02*
X283730000Y-133800000D01*
X285760000Y-132720000D02*
X285760000Y-133570000D01*
X285160000Y-132120000D02*
X285760000Y-132720000D01*
X284600000Y-132120000D02*
X285160000Y-132120000D01*
X284260000Y-132460000D02*
X284600000Y-132120000D01*
X284260000Y-133270000D02*
X284260000Y-132460000D01*
X283730000Y-133800000D02*
X284260000Y-133270000D01*
G04 #@! TO.N,/IN1-*
X292459580Y-137280000D02*
X292650000Y-137280000D01*
X292650000Y-137280000D02*
X295360000Y-134570000D01*
X295360000Y-134570000D02*
X296270000Y-134570000D01*
G04 #@! TO.N,/IN2-*
X292419580Y-135270000D02*
X292419580Y-131550420D01*
X294480000Y-129490000D02*
X296270000Y-129490000D01*
X292419580Y-131550420D02*
X294480000Y-129490000D01*
G04 #@! TO.N,Net-(C23-Pad1)*
X272629580Y-137270000D02*
X272629580Y-136632420D01*
X272629580Y-136632420D02*
X273262000Y-136000000D01*
X273262000Y-136000000D02*
X273350000Y-136000000D01*
X273350000Y-136000000D02*
X273950000Y-135400000D01*
X273950000Y-135400000D02*
X274800000Y-135400000D01*
G04 #@! TO.N,Net-(C24-Pad2)*
X275000000Y-130040000D02*
X274720163Y-130049375D01*
X274720163Y-130049375D02*
X272760000Y-132040000D01*
X272760000Y-132040000D02*
X272770000Y-132030000D01*
X272770000Y-132030000D02*
X272770000Y-132830000D01*
X272770000Y-132830000D02*
X271600000Y-132830000D01*
X271600000Y-132830000D02*
X271490000Y-132940000D01*
X271490000Y-132940000D02*
X271490000Y-134310000D01*
X271490000Y-134310000D02*
X271200000Y-134600000D01*
X276400000Y-131000000D02*
X276400000Y-130330490D01*
X275395598Y-130045598D02*
X275000000Y-130040000D01*
X276115108Y-130045598D02*
X275395598Y-130045598D01*
X276400000Y-130330490D02*
X276115108Y-130045598D01*
X271200000Y-134600000D02*
X270800000Y-134600000D01*
X269800000Y-134649580D02*
X270750420Y-134649580D01*
X270800000Y-134600000D02*
X270950000Y-134600000D01*
X270750420Y-134649580D02*
X270800000Y-134600000D01*
D52*
X271050000Y-134650000D02*
X270800000Y-134650000D01*
X270799580Y-134649580D02*
X270800000Y-134650000D01*
D48*
G04 #@! TO.N,Net-(C25-Pad2)*
X276000000Y-131000000D02*
X276000000Y-130450000D01*
X276000000Y-130450000D02*
X275900000Y-130350000D01*
X275900000Y-130350000D02*
X274900000Y-130350000D01*
X274900000Y-130350000D02*
X273200000Y-132050000D01*
X273200000Y-132050000D02*
X273200000Y-133650420D01*
X272200000Y-133500000D02*
X273049580Y-133500000D01*
X273049580Y-133500000D02*
X273200000Y-133650420D01*
G04 #@! TO.N,Net-(C28-Pad1)*
X275450000Y-140100420D02*
X275450000Y-138850000D01*
X275450000Y-138850000D02*
X276000000Y-138300000D01*
X276000000Y-138300000D02*
X276000000Y-137000000D01*
G04 #@! TO.N,Net-(C29-Pad1)*
X276850000Y-140100420D02*
X276850000Y-138850000D01*
X276400000Y-137000000D02*
X276400000Y-138400000D01*
X276400000Y-138400000D02*
X276850000Y-138850000D01*
G04 #@! TO.N,Net-(L4-Pad1)*
X274800000Y-135800000D02*
X274240000Y-135800000D01*
X273200000Y-137640000D02*
X273200000Y-138352000D01*
X273840000Y-137000000D02*
X273200000Y-137640000D01*
X273840000Y-136200000D02*
X273840000Y-137000000D01*
X274240000Y-135800000D02*
X273840000Y-136200000D01*
X273200000Y-138352000D02*
X272932000Y-138620000D01*
D51*
G04 #@! TO.N,Net-(F1-Pad2)*
X278000000Y-129100000D02*
X278000000Y-131000000D01*
D48*
G04 #@! TO.N,/DEC3*
X276800000Y-131000000D02*
X276800000Y-129850000D01*
X276439580Y-129489580D02*
X275840000Y-129489580D01*
X276800000Y-129850000D02*
X276439580Y-129489580D01*
G04 #@! TO.N,Net-(C35-Pad1)*
X288150420Y-127500000D02*
X288225420Y-127425000D01*
X287275000Y-127500000D02*
X288150420Y-127500000D01*
G04 #@! TO.N,/SDI*
X280800000Y-132200000D02*
X283200000Y-132200000D01*
X284280420Y-131119580D02*
X284280420Y-130610000D01*
X283200000Y-132200000D02*
X284280420Y-131119580D01*
X284275000Y-130604580D02*
X284280420Y-130610000D01*
X284275000Y-128700000D02*
X284275000Y-130604580D01*
G04 #@! TO.N,/SCL*
X280800000Y-131800000D02*
X281550000Y-131800000D01*
X280900000Y-131800000D02*
X280950000Y-131800000D01*
D52*
X280900000Y-131800000D02*
X281100000Y-131800000D01*
D48*
X283825000Y-128300000D02*
X283375000Y-128750000D01*
X284275000Y-128300000D02*
X283825000Y-128300000D01*
X283375000Y-128750000D02*
X283375000Y-131275000D01*
X282850000Y-131800000D02*
X281550000Y-131800000D01*
X283375000Y-131275000D02*
X282850000Y-131800000D01*
G04 #@! TO.N,DGND*
X287490000Y-140570420D02*
X287490000Y-140080000D01*
X287490000Y-140080000D02*
X287740000Y-139830000D01*
X284300420Y-144020000D02*
X284300420Y-144370420D01*
X287429580Y-144420420D02*
X287429580Y-144010000D01*
X287180000Y-144670000D02*
X287429580Y-144420420D01*
X284300420Y-144370420D02*
X284600000Y-144670000D01*
X285197500Y-141777500D02*
X285197500Y-141042500D01*
X285669580Y-140570420D02*
X287490000Y-140570420D01*
X285197500Y-141042500D02*
X285669580Y-140570420D01*
X284990420Y-138790000D02*
X284990420Y-140449580D01*
X284322500Y-141117500D02*
X284322500Y-141777500D01*
X284990420Y-140449580D02*
X284322500Y-141117500D01*
X283310000Y-141890000D02*
X284210000Y-141890000D01*
X284210000Y-141890000D02*
X284322500Y-141777500D01*
X284322500Y-141777500D02*
X284322500Y-142502500D01*
X285197500Y-142502500D02*
X284322500Y-142502500D01*
X284322500Y-141777500D02*
X285197500Y-141777500D01*
X295990000Y-141970000D02*
X292440000Y-141970000D01*
X292440000Y-141970000D02*
X292380000Y-141910000D01*
X288310420Y-144010000D02*
X287429580Y-144010000D01*
X284300420Y-144020000D02*
X284300420Y-142524580D01*
X284300420Y-142524580D02*
X284322500Y-142502500D01*
X282140000Y-141740420D02*
X282440420Y-141740420D01*
X282440420Y-141740420D02*
X282590000Y-141890000D01*
X282590000Y-141890000D02*
X283310000Y-141890000D01*
X285360000Y-133170000D02*
X285030000Y-132840000D01*
X285360000Y-133570000D02*
X285360000Y-133170000D01*
X275840000Y-128590420D02*
X274800840Y-128590420D01*
X274800840Y-128590420D02*
X274760000Y-128549580D01*
X276820000Y-128420000D02*
X276010420Y-128420000D01*
X276010420Y-128420000D02*
X275840000Y-128590420D01*
X275909580Y-128800000D02*
X275729580Y-128620000D01*
X281800000Y-138219580D02*
X282130000Y-138219580D01*
X282130000Y-138219580D02*
X282840000Y-137509580D01*
X272140000Y-142010420D02*
X271050000Y-142010420D01*
X271050000Y-142010420D02*
X271040000Y-142000420D01*
D51*
X286097500Y-134807500D02*
X287422500Y-134807500D01*
D48*
X271040000Y-142000420D02*
X271040000Y-141910420D01*
X271040000Y-141910420D02*
X272750420Y-140200000D01*
X268820000Y-143300000D02*
X268820000Y-142257500D01*
X268820000Y-142257500D02*
X268940000Y-142137500D01*
X268809580Y-143310420D02*
X268820000Y-143300000D01*
X268940000Y-142137500D02*
X267700000Y-142137500D01*
X267700000Y-141362500D02*
X267700000Y-142137500D01*
X268940000Y-141362500D02*
X267700000Y-141362500D01*
X268320000Y-140200000D02*
X268320000Y-140742500D01*
X268320000Y-140742500D02*
X268940000Y-141362500D01*
D51*
X288390000Y-130400000D02*
X288280000Y-130510000D01*
D48*
X286320420Y-130570000D02*
X286320420Y-131520000D01*
X278326500Y-128500000D02*
X279070000Y-128500000D01*
X288280000Y-130510000D02*
X289290000Y-130510000D01*
X289500000Y-130720000D02*
X289500000Y-131220420D01*
X289290000Y-130510000D02*
X289500000Y-130720000D01*
X289500000Y-131220420D02*
X290570000Y-131220420D01*
X290570000Y-131220420D02*
X290600000Y-131190420D01*
X287760000Y-133570000D02*
X287760000Y-132910000D01*
X287760000Y-132910000D02*
X288260000Y-132410000D01*
X288260000Y-132410000D02*
X288630000Y-132410000D01*
X288630000Y-132410000D02*
X288930000Y-132110000D01*
X288930000Y-132110000D02*
X288930000Y-131380000D01*
X288930000Y-131380000D02*
X289089580Y-131220420D01*
X289089580Y-131220420D02*
X289500000Y-131220420D01*
X283750000Y-138380000D02*
X284580420Y-138380000D01*
X284580420Y-138380000D02*
X284990420Y-138790000D01*
X286560000Y-133570000D02*
X286560000Y-132250000D01*
X286320420Y-132010420D02*
X286320420Y-131520000D01*
X286560000Y-132250000D02*
X286320420Y-132010420D01*
X283830000Y-137509580D02*
X283830000Y-138300000D01*
X283830000Y-138300000D02*
X283750000Y-138380000D01*
X286070000Y-134870000D02*
X286097500Y-134842500D01*
X286097500Y-134842500D02*
X286097500Y-134807500D01*
X286560000Y-133570000D02*
X286560000Y-134345000D01*
X286560000Y-134345000D02*
X286097500Y-134807500D01*
X287760000Y-133570000D02*
X287760000Y-134470000D01*
X287760000Y-134470000D02*
X287422500Y-134807500D01*
X283830000Y-137509580D02*
X282840000Y-137509580D01*
X284860000Y-136870000D02*
X284469580Y-136870000D01*
X284469580Y-136870000D02*
X283830000Y-137509580D01*
D51*
X275450000Y-140999580D02*
X272999580Y-140999580D01*
X272750420Y-140750420D02*
X272750420Y-140200000D01*
X272999580Y-140999580D02*
X272750420Y-140750420D01*
D48*
X285597500Y-136112500D02*
X286922500Y-136112500D01*
X286922500Y-136112500D02*
X286922500Y-134787500D01*
X287260000Y-134450000D02*
X286922500Y-134787500D01*
X286060000Y-134325000D02*
X285597500Y-134787500D01*
D49*
X270230000Y-137508000D02*
X271738000Y-136000000D01*
X270230000Y-139280000D02*
X270230000Y-137508000D01*
D48*
X272750420Y-140200000D02*
X272750420Y-139709580D01*
X272750420Y-139709580D02*
X272950000Y-139510000D01*
X272950000Y-139510000D02*
X273609580Y-139510000D01*
X273609580Y-139510000D02*
X274070000Y-139049580D01*
D49*
X274000000Y-128549580D02*
X274760000Y-128549580D01*
X274760000Y-128549580D02*
X274830420Y-128620000D01*
D48*
X276900000Y-128500000D02*
X276820000Y-128420000D01*
X277637500Y-128500000D02*
X276900000Y-128500000D01*
X277637500Y-128500000D02*
X278326500Y-128500000D01*
X272750420Y-140200000D02*
X272750420Y-140375840D01*
D49*
X273150420Y-129450000D02*
X273150420Y-128799580D01*
X273400420Y-128549580D02*
X274000000Y-128549580D01*
X273150420Y-128799580D02*
X273400420Y-128549580D01*
X271150000Y-140200000D02*
X272750420Y-140200000D01*
X270230000Y-139280000D02*
X271150000Y-140200000D01*
D48*
X273200000Y-134549580D02*
X273449580Y-134549580D01*
X273449580Y-134549580D02*
X273900000Y-135000000D01*
X273900000Y-135000000D02*
X274800000Y-135000000D01*
X277600000Y-131000000D02*
X277600000Y-129700000D01*
X277350000Y-129450000D02*
X277350000Y-128500000D01*
X277600000Y-129700000D02*
X277350000Y-129450000D01*
X278356250Y-132331250D02*
X278356250Y-133443750D01*
X277243750Y-135668750D02*
X276131250Y-135668750D01*
X278356250Y-135668750D02*
X277243750Y-135668750D01*
X279468750Y-135668750D02*
X278356250Y-135668750D01*
X279468750Y-134556250D02*
X279468750Y-135668750D01*
X278356250Y-134556250D02*
X279468750Y-134556250D01*
X277243750Y-134556250D02*
X278356250Y-134556250D01*
X276131250Y-134556250D02*
X277243750Y-134556250D01*
X276131250Y-133443750D02*
X276131250Y-134556250D01*
X277243750Y-133443750D02*
X276131250Y-133443750D01*
X278356250Y-133443750D02*
X277243750Y-133443750D01*
X279468750Y-132331250D02*
X279468750Y-133443750D01*
X278356250Y-132331250D02*
X279468750Y-132331250D01*
X277243750Y-132331250D02*
X278356250Y-132331250D01*
X276131250Y-132331250D02*
X277243750Y-132331250D01*
X274800000Y-135000000D02*
X275687500Y-135000000D01*
X275687500Y-135000000D02*
X276131250Y-134556250D01*
X277600000Y-131000000D02*
X277600000Y-131975000D01*
X277600000Y-131975000D02*
X277243750Y-132331250D01*
D49*
X275450000Y-140999580D02*
X276100000Y-140999580D01*
X276100000Y-140999580D02*
X276850000Y-140999580D01*
D48*
X270800000Y-133500000D02*
X270050420Y-133500000D01*
X270050420Y-133500000D02*
X269800000Y-133750420D01*
X273200000Y-134549580D02*
X272250420Y-134549580D01*
X272250420Y-134549580D02*
X272200000Y-134600000D01*
X269800000Y-133750420D02*
X269093580Y-133750420D01*
X269093580Y-133750420D02*
X268986000Y-133858000D01*
X268986000Y-133858000D02*
X268986000Y-135610000D01*
X268986000Y-135610000D02*
X268986000Y-135636000D01*
X268986000Y-135636000D02*
X272034000Y-135636000D01*
X272034000Y-135636000D02*
X272200000Y-135470000D01*
X272200000Y-135470000D02*
X272200000Y-134650000D01*
D52*
X272300420Y-134549580D02*
X272200000Y-134650000D01*
D48*
X285925000Y-144670000D02*
X287180000Y-144670000D01*
D49*
X272530000Y-145930000D02*
X271200000Y-144600000D01*
X278075000Y-145930000D02*
X272530000Y-145930000D01*
D48*
X284600000Y-144670000D02*
X285925000Y-144670000D01*
D49*
X284300420Y-145704580D02*
X284075000Y-145930000D01*
X284300420Y-144020000D02*
X284300420Y-145704580D01*
D48*
X277525840Y-143350840D02*
X277550000Y-143375000D01*
X276550000Y-143350840D02*
X277525840Y-143350840D01*
X276330839Y-143570001D02*
X276550000Y-143350840D01*
X275570001Y-143570001D02*
X276330839Y-143570001D01*
D51*
X277650330Y-143375000D02*
X277550000Y-143375000D01*
X278195901Y-142829429D02*
X277650330Y-143375000D01*
X277820514Y-140999580D02*
X278195901Y-141374967D01*
X276850000Y-140999580D02*
X277820514Y-140999580D01*
D48*
X283848000Y-127100000D02*
X284275000Y-127100000D01*
X283796599Y-127048599D02*
X283848000Y-127100000D01*
X283796599Y-126417279D02*
X283796599Y-127048599D01*
X284013878Y-126200000D02*
X283796599Y-126417279D01*
X284775000Y-126200000D02*
X284013878Y-126200000D01*
X285302000Y-127700000D02*
X285775000Y-127700000D01*
X284702000Y-127100000D02*
X285302000Y-127700000D01*
X284275000Y-127100000D02*
X284702000Y-127100000D01*
X289174580Y-127375000D02*
X289124580Y-127425000D01*
X289174580Y-126425000D02*
X289174580Y-127375000D01*
X289124580Y-128324580D02*
X289099160Y-128350000D01*
X289124580Y-127425000D02*
X289124580Y-128324580D01*
X278498610Y-142300000D02*
X278195901Y-142300000D01*
X278850000Y-142300000D02*
X278498610Y-142300000D01*
D51*
X278195901Y-141374967D02*
X278195901Y-142300000D01*
X278195901Y-142300000D02*
X278195901Y-142829429D01*
D48*
G04 #@! TO.N,Net-(C3-Pad1)*
X288660000Y-136870000D02*
X288660000Y-137419580D01*
X288660000Y-137419580D02*
X289600000Y-138359580D01*
G04 #@! TO.N,Net-(C3-Pad2)*
X288660000Y-136470000D02*
X289130000Y-136470000D01*
X289600000Y-136940000D02*
X289600000Y-137460420D01*
X289130000Y-136470000D02*
X289600000Y-136940000D01*
G04 #@! TO.N,Net-(C5-Pad1)*
X288660000Y-134470000D02*
X289319580Y-134470000D01*
X289319580Y-134470000D02*
X289890000Y-133899580D01*
G04 #@! TO.N,Net-(C5-Pad2)*
X288660000Y-134070000D02*
X288660000Y-133870000D01*
X289529580Y-133000420D02*
X289890000Y-133000420D01*
X288660000Y-133870000D02*
X289529580Y-133000420D01*
G04 #@! TO.N,Net-(C10-Pad2)*
X288160000Y-133570000D02*
X288160000Y-133070000D01*
X288869580Y-132750000D02*
X289500000Y-132119580D01*
X288480000Y-132750000D02*
X288869580Y-132750000D01*
X288160000Y-133070000D02*
X288480000Y-132750000D01*
X290600000Y-132089580D02*
X289530000Y-132089580D01*
X289530000Y-132089580D02*
X289500000Y-132119580D01*
G04 #@! TO.N,Net-(C9-Pad1)*
X287360000Y-133570000D02*
X287360000Y-132670000D01*
X287360000Y-132670000D02*
X288280000Y-131750000D01*
X288280000Y-131750000D02*
X288280000Y-131610000D01*
G04 #@! TO.N,Net-(C11-Pad1)*
X286160000Y-137370000D02*
X286160000Y-138060000D01*
X285889580Y-138330420D02*
X285889580Y-138790000D01*
X286160000Y-138060000D02*
X285889580Y-138330420D01*
D51*
G04 #@! TO.N,Net-(L1-Pad2)*
X268820000Y-140200000D02*
X268820000Y-139039580D01*
X268820000Y-139039580D02*
X268889580Y-138970000D01*
D48*
G04 #@! TO.N,Net-(R1-Pad1)*
X288660000Y-136070000D02*
X289600000Y-136070000D01*
X290810000Y-137280000D02*
X291560420Y-137280000D01*
X289600000Y-136070000D02*
X290810000Y-137280000D01*
G04 #@! TO.N,Net-(R2-Pad1)*
X288660000Y-135670000D02*
X290330420Y-135670000D01*
X290330420Y-135670000D02*
X290950420Y-136290000D01*
G04 #@! TO.N,Net-(R3-Pad1)*
X288660000Y-135270000D02*
X291520420Y-135270000D01*
G04 #@! TO.N,Net-(R4-Pad1)*
X288660000Y-134870000D02*
X290260420Y-134870000D01*
X290260420Y-134870000D02*
X290940420Y-134190000D01*
G04 #@! TO.N,/AIN_BAT_DIV_VOLTAGE*
X279749160Y-141770282D02*
X279749160Y-142300000D01*
X278000000Y-137000000D02*
X278000000Y-140021122D01*
X278000000Y-140021122D02*
X279749160Y-141770282D01*
X279749160Y-143325000D02*
X279749160Y-142300000D01*
G04 #@! TO.N,/LOAD_SW_CTRL*
X279277791Y-143807441D02*
X277785232Y-145300000D01*
X279277791Y-141729413D02*
X279277791Y-143807441D01*
X277600000Y-137000000D02*
X277600000Y-140051622D01*
X277600000Y-140051622D02*
X279277791Y-141729413D01*
X275170001Y-144532635D02*
X275170001Y-144370001D01*
X275937366Y-145300000D02*
X275170001Y-144532635D01*
X277785232Y-145300000D02*
X275937366Y-145300000D01*
G04 #@! TO.N,5V_in_charge*
X288310000Y-142955000D02*
X289495000Y-142955000D01*
X289495000Y-142955000D02*
X289520000Y-142980000D01*
X286530420Y-144010000D02*
X286530420Y-143719580D01*
X286530420Y-143719580D02*
X286880000Y-143370000D01*
X287895000Y-143370000D02*
X288310000Y-142955000D01*
X286880000Y-143370000D02*
X287895000Y-143370000D01*
X289520000Y-142980000D02*
X291740000Y-142980000D01*
X294720000Y-143240000D02*
X295990000Y-144510000D01*
X292000000Y-143240000D02*
X294720000Y-143240000D01*
X291740000Y-142980000D02*
X292000000Y-143240000D01*
X285199580Y-144020000D02*
X286520420Y-144020000D01*
X286520420Y-144020000D02*
X286530420Y-144010000D01*
X286530420Y-144010000D02*
X286530420Y-143210420D01*
X286530420Y-143210420D02*
X286210000Y-142890000D01*
X286210000Y-142390000D02*
X286210000Y-142890000D01*
G04 #@! TO.N,Net-(D3-Pad1)*
X283310000Y-141390000D02*
X283310000Y-141240000D01*
X283310000Y-141240000D02*
X283840000Y-140710000D01*
X283840000Y-140710000D02*
X283840000Y-140050000D01*
G04 #@! TO.N,Net-(R9-Pad1)*
X283310000Y-142890000D02*
X282390420Y-142890000D01*
X282390420Y-142890000D02*
X282140000Y-142639580D01*
G04 #@! TO.N,/BATT_IN*
X287490000Y-141469580D02*
X288010420Y-141469580D01*
X290930000Y-144450000D02*
X290000000Y-145010000D01*
X290930000Y-144450000D02*
X292380000Y-144450000D01*
X288010420Y-141469580D02*
X288340000Y-141140000D01*
X287490000Y-141469580D02*
X287490000Y-142610000D01*
X286210000Y-141890000D02*
X286210000Y-141390000D01*
X286210000Y-141390000D02*
X287410420Y-141390000D01*
X287410420Y-141390000D02*
X287490000Y-141469580D01*
X287490000Y-142610000D02*
X287610000Y-142730000D01*
G04 #@! TO.N,VccSwitch*
X280995000Y-143700000D02*
X281700000Y-143700000D01*
X280075000Y-144575000D02*
X280120000Y-144575000D01*
X280120000Y-144575000D02*
X280995000Y-143700000D01*
D51*
X289700000Y-141200000D02*
X289520000Y-141380000D01*
X289700000Y-140475000D02*
X289700000Y-141200000D01*
D48*
X289510000Y-141380000D02*
X289520000Y-141380000D01*
X288385000Y-142505000D02*
X289510000Y-141380000D01*
X288310000Y-142505000D02*
X288385000Y-142505000D01*
X289209580Y-144010000D02*
X289985000Y-144010000D01*
X289985000Y-144010000D02*
X290050000Y-144075000D01*
G04 #@! TO.N,1.8V*
X276270001Y-143970001D02*
X276550000Y-144250000D01*
X275570001Y-143970001D02*
X276270001Y-143970001D01*
D51*
X276550000Y-144250000D02*
X277500000Y-144250000D01*
X273700000Y-144625000D02*
X273650000Y-144675000D01*
X273700000Y-144100000D02*
X273700000Y-144625000D01*
X283340000Y-126465000D02*
X283300000Y-126425000D01*
D48*
X287500000Y-128350000D02*
X288200000Y-128350000D01*
X287275000Y-128125000D02*
X287500000Y-128350000D01*
X287275000Y-128125000D02*
X287275000Y-128300000D01*
X287275000Y-127900000D02*
X287275000Y-128125000D01*
X287650000Y-126056400D02*
X287650000Y-126200000D01*
X287550000Y-125956400D02*
X287650000Y-126056400D01*
X286775000Y-126200000D02*
X287650000Y-126200000D01*
D51*
X288175000Y-128375000D02*
X288200000Y-128350000D01*
X288175000Y-129000000D02*
X288175000Y-128375000D01*
D48*
X284225840Y-127850840D02*
X284275000Y-127900000D01*
X283375000Y-127850840D02*
X284225840Y-127850840D01*
X283375000Y-126500000D02*
X283300000Y-126425000D01*
X283375000Y-127850840D02*
X283375000Y-126500000D01*
X285179580Y-130610000D02*
X285179580Y-130370420D01*
X285179580Y-130370420D02*
X285450000Y-130100000D01*
X288050420Y-126200000D02*
X288275420Y-126425000D01*
X287650000Y-126200000D02*
X288050420Y-126200000D01*
G04 #@! TO.N,Net-(L2-Pad1)*
X275165002Y-143175000D02*
X275170001Y-143170001D01*
X273650000Y-143175000D02*
X275165002Y-143175000D01*
G04 #@! TO.N,Net-(R5-Pad1)*
X275570001Y-144370001D02*
X275975000Y-144775000D01*
X277851720Y-144775000D02*
X277650000Y-144775000D01*
X278850000Y-143776720D02*
X277851720Y-144775000D01*
X278850000Y-143325000D02*
X278850000Y-143776720D01*
X275975000Y-144775000D02*
X277650000Y-144775000D01*
X277650000Y-144775000D02*
X277850000Y-144775000D01*
G04 #@! TD*
D53*
G04 #@! TO.N,DGND*
G36*
X266712191Y-144082809D02*
X266922235Y-144223157D01*
X267170000Y-144272440D01*
X267470000Y-144272440D01*
X267570000Y-144252549D01*
X267670000Y-144272440D01*
X267852055Y-144272440D01*
X267866763Y-144282268D01*
X268117729Y-144533233D01*
X268157398Y-144592602D01*
X268392582Y-144749747D01*
X268599974Y-144791000D01*
X268599979Y-144791000D01*
X268670000Y-144804928D01*
X268740021Y-144791000D01*
X270899559Y-144791000D01*
X270969580Y-144804928D01*
X271039601Y-144791000D01*
X271039606Y-144791000D01*
X271246998Y-144749747D01*
X271482182Y-144592602D01*
X271489268Y-144581997D01*
X271587732Y-144729359D01*
X271587734Y-144729361D01*
X271627399Y-144788724D01*
X271686762Y-144828389D01*
X272465010Y-145606637D01*
X272504677Y-145666003D01*
X272739861Y-145823148D01*
X272947253Y-145864401D01*
X272947258Y-145864401D01*
X273017279Y-145878329D01*
X273087300Y-145864401D01*
X274212700Y-145864401D01*
X274282721Y-145878329D01*
X274352742Y-145864401D01*
X274352747Y-145864401D01*
X274560139Y-145823148D01*
X274795323Y-145666003D01*
X274834990Y-145606637D01*
X275036744Y-145404883D01*
X275385098Y-145753238D01*
X275424764Y-145812602D01*
X275484127Y-145852267D01*
X275484128Y-145852268D01*
X275523131Y-145878329D01*
X275659948Y-145969747D01*
X275867340Y-146011000D01*
X275867345Y-146011000D01*
X275937366Y-146024928D01*
X276007387Y-146011000D01*
X276990000Y-146011000D01*
X276990000Y-146057002D01*
X277148748Y-146057002D01*
X276990000Y-146215750D01*
X276990000Y-146406309D01*
X277010738Y-146456374D01*
X266585000Y-146464468D01*
X266585000Y-143892456D01*
X266712191Y-144082809D01*
X266712191Y-144082809D01*
G37*
X266712191Y-144082809D02*
X266922235Y-144223157D01*
X267170000Y-144272440D01*
X267470000Y-144272440D01*
X267570000Y-144252549D01*
X267670000Y-144272440D01*
X267852055Y-144272440D01*
X267866763Y-144282268D01*
X268117729Y-144533233D01*
X268157398Y-144592602D01*
X268392582Y-144749747D01*
X268599974Y-144791000D01*
X268599979Y-144791000D01*
X268670000Y-144804928D01*
X268740021Y-144791000D01*
X270899559Y-144791000D01*
X270969580Y-144804928D01*
X271039601Y-144791000D01*
X271039606Y-144791000D01*
X271246998Y-144749747D01*
X271482182Y-144592602D01*
X271489268Y-144581997D01*
X271587732Y-144729359D01*
X271587734Y-144729361D01*
X271627399Y-144788724D01*
X271686762Y-144828389D01*
X272465010Y-145606637D01*
X272504677Y-145666003D01*
X272739861Y-145823148D01*
X272947253Y-145864401D01*
X272947258Y-145864401D01*
X273017279Y-145878329D01*
X273087300Y-145864401D01*
X274212700Y-145864401D01*
X274282721Y-145878329D01*
X274352742Y-145864401D01*
X274352747Y-145864401D01*
X274560139Y-145823148D01*
X274795323Y-145666003D01*
X274834990Y-145606637D01*
X275036744Y-145404883D01*
X275385098Y-145753238D01*
X275424764Y-145812602D01*
X275484127Y-145852267D01*
X275484128Y-145852268D01*
X275523131Y-145878329D01*
X275659948Y-145969747D01*
X275867340Y-146011000D01*
X275867345Y-146011000D01*
X275937366Y-146024928D01*
X276007387Y-146011000D01*
X276990000Y-146011000D01*
X276990000Y-146057002D01*
X277148748Y-146057002D01*
X276990000Y-146215750D01*
X276990000Y-146406309D01*
X277010738Y-146456374D01*
X266585000Y-146464468D01*
X266585000Y-143892456D01*
X266712191Y-144082809D01*
G36*
X282687235Y-143638157D02*
X282935000Y-143687440D01*
X283466030Y-143687440D01*
X283466030Y-143734250D01*
X283624780Y-143893000D01*
X284200725Y-143893000D01*
X284200725Y-143873000D01*
X284352750Y-143873000D01*
X284352750Y-144319720D01*
X284400115Y-144557842D01*
X284400115Y-144795970D01*
X284549145Y-144945000D01*
X284360750Y-144945000D01*
X284202000Y-145103750D01*
X284202000Y-145803000D01*
X285001250Y-145803000D01*
X285160000Y-145644250D01*
X285160000Y-145453691D01*
X285063327Y-145220302D01*
X284884699Y-145041673D01*
X284651310Y-144945000D01*
X284649585Y-144945000D01*
X284738128Y-144908324D01*
X284752425Y-144917877D01*
X285000190Y-144967160D01*
X285398970Y-144967160D01*
X285646735Y-144917877D01*
X285856779Y-144777529D01*
X285868341Y-144760225D01*
X285873221Y-144767529D01*
X286083265Y-144907877D01*
X286331030Y-144957160D01*
X286729810Y-144957160D01*
X286977575Y-144907877D01*
X286991872Y-144898324D01*
X287103881Y-144944720D01*
X287171135Y-144944720D01*
X287329885Y-144785970D01*
X287329885Y-144547842D01*
X287377250Y-144309720D01*
X287377250Y-144081000D01*
X287476030Y-144081000D01*
X287476030Y-144137002D01*
X287529275Y-144137002D01*
X287529275Y-144242505D01*
X287476030Y-144295750D01*
X287476030Y-144436030D01*
X287529275Y-144564575D01*
X287529275Y-144785970D01*
X287688025Y-144944720D01*
X287755279Y-144944720D01*
X287870000Y-144897201D01*
X287984721Y-144944720D01*
X288051975Y-144944720D01*
X288210725Y-144785970D01*
X288210725Y-144564575D01*
X288263970Y-144436030D01*
X288263970Y-144295750D01*
X288210725Y-144242505D01*
X288210725Y-144137000D01*
X288163420Y-144137000D01*
X288163420Y-144041537D01*
X288172418Y-144039747D01*
X288362750Y-143912571D01*
X288362750Y-144309720D01*
X288410115Y-144547842D01*
X288410115Y-144785970D01*
X288568865Y-144944720D01*
X288636119Y-144944720D01*
X288748128Y-144898324D01*
X288762425Y-144907877D01*
X289010190Y-144957160D01*
X289111000Y-144957160D01*
X289111000Y-145186833D01*
X289246342Y-145513578D01*
X289496422Y-145763658D01*
X289823167Y-145899000D01*
X290176833Y-145899000D01*
X290503578Y-145763658D01*
X290753658Y-145513578D01*
X290823989Y-145343783D01*
X290978292Y-145250870D01*
X291019843Y-145459765D01*
X291160191Y-145669809D01*
X291370235Y-145810157D01*
X291618000Y-145859440D01*
X293142000Y-145859440D01*
X293389765Y-145810157D01*
X293599809Y-145669809D01*
X293740157Y-145459765D01*
X293789440Y-145212000D01*
X293789440Y-143951000D01*
X294425495Y-143951000D01*
X294492560Y-144018065D01*
X294492560Y-145360000D01*
X294541843Y-145607765D01*
X294682191Y-145817809D01*
X294892235Y-145958157D01*
X295140000Y-146007440D01*
X296840000Y-146007440D01*
X297087765Y-145958157D01*
X297297809Y-145817809D01*
X297415001Y-145642420D01*
X297415001Y-146440532D01*
X285141877Y-146450061D01*
X285160000Y-146406309D01*
X285160000Y-146215750D01*
X285001250Y-146057000D01*
X284202000Y-146057000D01*
X284202000Y-146077000D01*
X283948000Y-146077000D01*
X283948000Y-146057000D01*
X283148750Y-146057000D01*
X282990000Y-146215750D01*
X282990000Y-146406309D01*
X283008809Y-146451717D01*
X279139947Y-146454721D01*
X279160000Y-146406309D01*
X279160000Y-146215750D01*
X279001250Y-146057000D01*
X278202000Y-146057000D01*
X278202000Y-146077000D01*
X277948000Y-146077000D01*
X277948000Y-146057000D01*
X277928000Y-146057000D01*
X277928000Y-145996531D01*
X278062650Y-145969747D01*
X278297834Y-145812602D01*
X278304250Y-145803000D01*
X279001250Y-145803000D01*
X279160000Y-145644250D01*
X279160000Y-145453691D01*
X279063327Y-145220302D01*
X278966881Y-145123856D01*
X279149655Y-144941082D01*
X279176843Y-145077765D01*
X279317191Y-145287809D01*
X279527235Y-145428157D01*
X279775000Y-145477440D01*
X280211251Y-145477440D01*
X280346342Y-145803578D01*
X280596422Y-146053658D01*
X280923167Y-146189000D01*
X281276833Y-146189000D01*
X281603578Y-146053658D01*
X281853658Y-145803578D01*
X281988749Y-145477440D01*
X282375000Y-145477440D01*
X282494395Y-145453691D01*
X282990000Y-145453691D01*
X282990000Y-145644250D01*
X283148750Y-145803000D01*
X283948000Y-145803000D01*
X283948000Y-145103750D01*
X283789250Y-144945000D01*
X283498690Y-144945000D01*
X283265301Y-145041673D01*
X283086673Y-145220302D01*
X282990000Y-145453691D01*
X282494395Y-145453691D01*
X282622765Y-145428157D01*
X282832809Y-145287809D01*
X282973157Y-145077765D01*
X283022440Y-144830000D01*
X283022440Y-144320000D01*
X283019606Y-144305750D01*
X283466030Y-144305750D01*
X283466030Y-144446030D01*
X283562703Y-144679419D01*
X283741332Y-144858047D01*
X283974721Y-144954720D01*
X284041975Y-144954720D01*
X284200725Y-144795970D01*
X284200725Y-144147000D01*
X283624780Y-144147000D01*
X283466030Y-144305750D01*
X283019606Y-144305750D01*
X282973157Y-144072235D01*
X282832809Y-143862191D01*
X282622765Y-143721843D01*
X282589000Y-143715127D01*
X282589000Y-143601000D01*
X282631626Y-143601000D01*
X282687235Y-143638157D01*
X282687235Y-143638157D01*
G37*
X282687235Y-143638157D02*
X282935000Y-143687440D01*
X283466030Y-143687440D01*
X283466030Y-143734250D01*
X283624780Y-143893000D01*
X284200725Y-143893000D01*
X284200725Y-143873000D01*
X284352750Y-143873000D01*
X284352750Y-144319720D01*
X284400115Y-144557842D01*
X284400115Y-144795970D01*
X284549145Y-144945000D01*
X284360750Y-144945000D01*
X284202000Y-145103750D01*
X284202000Y-145803000D01*
X285001250Y-145803000D01*
X285160000Y-145644250D01*
X285160000Y-145453691D01*
X285063327Y-145220302D01*
X284884699Y-145041673D01*
X284651310Y-144945000D01*
X284649585Y-144945000D01*
X284738128Y-144908324D01*
X284752425Y-144917877D01*
X285000190Y-144967160D01*
X285398970Y-144967160D01*
X285646735Y-144917877D01*
X285856779Y-144777529D01*
X285868341Y-144760225D01*
X285873221Y-144767529D01*
X286083265Y-144907877D01*
X286331030Y-144957160D01*
X286729810Y-144957160D01*
X286977575Y-144907877D01*
X286991872Y-144898324D01*
X287103881Y-144944720D01*
X287171135Y-144944720D01*
X287329885Y-144785970D01*
X287329885Y-144547842D01*
X287377250Y-144309720D01*
X287377250Y-144081000D01*
X287476030Y-144081000D01*
X287476030Y-144137002D01*
X287529275Y-144137002D01*
X287529275Y-144242505D01*
X287476030Y-144295750D01*
X287476030Y-144436030D01*
X287529275Y-144564575D01*
X287529275Y-144785970D01*
X287688025Y-144944720D01*
X287755279Y-144944720D01*
X287870000Y-144897201D01*
X287984721Y-144944720D01*
X288051975Y-144944720D01*
X288210725Y-144785970D01*
X288210725Y-144564575D01*
X288263970Y-144436030D01*
X288263970Y-144295750D01*
X288210725Y-144242505D01*
X288210725Y-144137000D01*
X288163420Y-144137000D01*
X288163420Y-144041537D01*
X288172418Y-144039747D01*
X288362750Y-143912571D01*
X288362750Y-144309720D01*
X288410115Y-144547842D01*
X288410115Y-144785970D01*
X288568865Y-144944720D01*
X288636119Y-144944720D01*
X288748128Y-144898324D01*
X288762425Y-144907877D01*
X289010190Y-144957160D01*
X289111000Y-144957160D01*
X289111000Y-145186833D01*
X289246342Y-145513578D01*
X289496422Y-145763658D01*
X289823167Y-145899000D01*
X290176833Y-145899000D01*
X290503578Y-145763658D01*
X290753658Y-145513578D01*
X290823989Y-145343783D01*
X290978292Y-145250870D01*
X291019843Y-145459765D01*
X291160191Y-145669809D01*
X291370235Y-145810157D01*
X291618000Y-145859440D01*
X293142000Y-145859440D01*
X293389765Y-145810157D01*
X293599809Y-145669809D01*
X293740157Y-145459765D01*
X293789440Y-145212000D01*
X293789440Y-143951000D01*
X294425495Y-143951000D01*
X294492560Y-144018065D01*
X294492560Y-145360000D01*
X294541843Y-145607765D01*
X294682191Y-145817809D01*
X294892235Y-145958157D01*
X295140000Y-146007440D01*
X296840000Y-146007440D01*
X297087765Y-145958157D01*
X297297809Y-145817809D01*
X297415001Y-145642420D01*
X297415001Y-146440532D01*
X285141877Y-146450061D01*
X285160000Y-146406309D01*
X285160000Y-146215750D01*
X285001250Y-146057000D01*
X284202000Y-146057000D01*
X284202000Y-146077000D01*
X283948000Y-146077000D01*
X283948000Y-146057000D01*
X283148750Y-146057000D01*
X282990000Y-146215750D01*
X282990000Y-146406309D01*
X283008809Y-146451717D01*
X279139947Y-146454721D01*
X279160000Y-146406309D01*
X279160000Y-146215750D01*
X279001250Y-146057000D01*
X278202000Y-146057000D01*
X278202000Y-146077000D01*
X277948000Y-146077000D01*
X277948000Y-146057000D01*
X277928000Y-146057000D01*
X277928000Y-145996531D01*
X278062650Y-145969747D01*
X278297834Y-145812602D01*
X278304250Y-145803000D01*
X279001250Y-145803000D01*
X279160000Y-145644250D01*
X279160000Y-145453691D01*
X279063327Y-145220302D01*
X278966881Y-145123856D01*
X279149655Y-144941082D01*
X279176843Y-145077765D01*
X279317191Y-145287809D01*
X279527235Y-145428157D01*
X279775000Y-145477440D01*
X280211251Y-145477440D01*
X280346342Y-145803578D01*
X280596422Y-146053658D01*
X280923167Y-146189000D01*
X281276833Y-146189000D01*
X281603578Y-146053658D01*
X281853658Y-145803578D01*
X281988749Y-145477440D01*
X282375000Y-145477440D01*
X282494395Y-145453691D01*
X282990000Y-145453691D01*
X282990000Y-145644250D01*
X283148750Y-145803000D01*
X283948000Y-145803000D01*
X283948000Y-145103750D01*
X283789250Y-144945000D01*
X283498690Y-144945000D01*
X283265301Y-145041673D01*
X283086673Y-145220302D01*
X282990000Y-145453691D01*
X282494395Y-145453691D01*
X282622765Y-145428157D01*
X282832809Y-145287809D01*
X282973157Y-145077765D01*
X283022440Y-144830000D01*
X283022440Y-144320000D01*
X283019606Y-144305750D01*
X283466030Y-144305750D01*
X283466030Y-144446030D01*
X283562703Y-144679419D01*
X283741332Y-144858047D01*
X283974721Y-144954720D01*
X284041975Y-144954720D01*
X284200725Y-144795970D01*
X284200725Y-144147000D01*
X283624780Y-144147000D01*
X283466030Y-144305750D01*
X283019606Y-144305750D01*
X282973157Y-144072235D01*
X282832809Y-143862191D01*
X282622765Y-143721843D01*
X282589000Y-143715127D01*
X282589000Y-143601000D01*
X282631626Y-143601000D01*
X282687235Y-143638157D01*
G36*
X277697000Y-143369353D02*
X277676833Y-143361000D01*
X277403000Y-143361000D01*
X277403000Y-143322670D01*
X277697000Y-143322670D01*
X277697000Y-143369353D01*
X277697000Y-143369353D01*
G37*
X277697000Y-143369353D02*
X277676833Y-143361000D01*
X277403000Y-143361000D01*
X277403000Y-143322670D01*
X277697000Y-143322670D01*
X277697000Y-143369353D01*
G36*
X276677000Y-143247998D02*
X276615280Y-143247998D01*
X276615280Y-143345597D01*
X276547419Y-143300254D01*
X276462203Y-143283304D01*
X276541667Y-143203840D01*
X276677000Y-143203840D01*
X276677000Y-143247998D01*
X276677000Y-143247998D01*
G37*
X276677000Y-143247998D02*
X276615280Y-143247998D01*
X276615280Y-143345597D01*
X276547419Y-143300254D01*
X276462203Y-143283304D01*
X276541667Y-143203840D01*
X276677000Y-143203840D01*
X276677000Y-143247998D01*
G36*
X281382191Y-140907809D02*
X281507513Y-140991547D01*
X281480581Y-141002703D01*
X281301953Y-141181332D01*
X281205280Y-141414721D01*
X281205280Y-141481975D01*
X281364030Y-141640725D01*
X282013000Y-141640725D01*
X282013000Y-141593420D01*
X282267000Y-141593420D01*
X282267000Y-141640725D01*
X282287000Y-141640725D01*
X282287000Y-141792750D01*
X281840280Y-141792750D01*
X281602158Y-141840115D01*
X281364030Y-141840115D01*
X281205280Y-141998865D01*
X281205280Y-142066119D01*
X281251676Y-142178128D01*
X281242123Y-142192425D01*
X281192840Y-142440190D01*
X281192840Y-142838970D01*
X281212844Y-142939540D01*
X281196422Y-142946342D01*
X281153764Y-142989000D01*
X281065021Y-142989000D01*
X280995000Y-142975072D01*
X280924979Y-142989000D01*
X280924974Y-142989000D01*
X280717582Y-143030253D01*
X280595990Y-143111498D01*
X280595990Y-143025280D01*
X280553666Y-142812500D01*
X280595990Y-142599720D01*
X280595990Y-142000280D01*
X280546707Y-141752515D01*
X280438276Y-141590238D01*
X280418907Y-141492864D01*
X280261761Y-141257680D01*
X280202398Y-141218015D01*
X280079793Y-141095410D01*
X280090000Y-141097440D01*
X280890000Y-141097440D01*
X281137765Y-141048157D01*
X281347809Y-140907809D01*
X281365000Y-140882081D01*
X281382191Y-140907809D01*
X281382191Y-140907809D01*
G37*
X281382191Y-140907809D02*
X281507513Y-140991547D01*
X281480581Y-141002703D01*
X281301953Y-141181332D01*
X281205280Y-141414721D01*
X281205280Y-141481975D01*
X281364030Y-141640725D01*
X282013000Y-141640725D01*
X282013000Y-141593420D01*
X282267000Y-141593420D01*
X282267000Y-141640725D01*
X282287000Y-141640725D01*
X282287000Y-141792750D01*
X281840280Y-141792750D01*
X281602158Y-141840115D01*
X281364030Y-141840115D01*
X281205280Y-141998865D01*
X281205280Y-142066119D01*
X281251676Y-142178128D01*
X281242123Y-142192425D01*
X281192840Y-142440190D01*
X281192840Y-142838970D01*
X281212844Y-142939540D01*
X281196422Y-142946342D01*
X281153764Y-142989000D01*
X281065021Y-142989000D01*
X280995000Y-142975072D01*
X280924979Y-142989000D01*
X280924974Y-142989000D01*
X280717582Y-143030253D01*
X280595990Y-143111498D01*
X280595990Y-143025280D01*
X280553666Y-142812500D01*
X280595990Y-142599720D01*
X280595990Y-142000280D01*
X280546707Y-141752515D01*
X280438276Y-141590238D01*
X280418907Y-141492864D01*
X280261761Y-141257680D01*
X280202398Y-141218015D01*
X280079793Y-141095410D01*
X280090000Y-141097440D01*
X280890000Y-141097440D01*
X281137765Y-141048157D01*
X281347809Y-140907809D01*
X281365000Y-140882081D01*
X281382191Y-140907809D01*
G36*
X294962191Y-138587809D02*
X295172235Y-138728157D01*
X295420000Y-138777440D01*
X297120000Y-138777440D01*
X297367765Y-138728157D01*
X297415001Y-138696595D01*
X297415001Y-141573333D01*
X297261645Y-141203076D01*
X296871358Y-140774817D01*
X296346892Y-140528514D01*
X296117000Y-140649181D01*
X296117000Y-141843000D01*
X296137000Y-141843000D01*
X296137000Y-142097000D01*
X296117000Y-142097000D01*
X296117000Y-142117000D01*
X295863000Y-142117000D01*
X295863000Y-142097000D01*
X294669845Y-142097000D01*
X294548524Y-142326890D01*
X294632235Y-142529000D01*
X293642406Y-142529000D01*
X293789144Y-142117698D01*
X293763889Y-141613110D01*
X294548524Y-141613110D01*
X294669845Y-141843000D01*
X295863000Y-141843000D01*
X295863000Y-140649181D01*
X295633108Y-140528514D01*
X295108642Y-140774817D01*
X294718355Y-141203076D01*
X294548524Y-141613110D01*
X293763889Y-141613110D01*
X293761362Y-141562632D01*
X293602397Y-141178857D01*
X293360213Y-141109392D01*
X292559605Y-141910000D01*
X292573748Y-141924143D01*
X292394143Y-142103748D01*
X292380000Y-142089605D01*
X292365858Y-142103748D01*
X292186253Y-141924143D01*
X292200395Y-141910000D01*
X291399787Y-141109392D01*
X291157603Y-141178857D01*
X290970856Y-141702302D01*
X290998638Y-142257368D01*
X291003456Y-142269000D01*
X290475904Y-142269000D01*
X290416436Y-142180000D01*
X290518157Y-142027765D01*
X290567440Y-141780000D01*
X290567440Y-140980000D01*
X290530336Y-140793462D01*
X290589000Y-140651833D01*
X290589000Y-140620580D01*
X290707989Y-140620580D01*
X290837515Y-140707127D01*
X291085280Y-140756410D01*
X291629121Y-140756410D01*
X291579392Y-140929787D01*
X292380000Y-141730395D01*
X293180608Y-140929787D01*
X293111143Y-140687603D01*
X293078913Y-140676104D01*
X293242529Y-140566779D01*
X293382877Y-140356735D01*
X293432160Y-140108970D01*
X293432160Y-139710190D01*
X293427741Y-139687976D01*
X293466998Y-139680167D01*
X293702182Y-139523022D01*
X293741849Y-139463656D01*
X294824205Y-138381300D01*
X294962191Y-138587809D01*
X294962191Y-138587809D01*
G37*
X294962191Y-138587809D02*
X295172235Y-138728157D01*
X295420000Y-138777440D01*
X297120000Y-138777440D01*
X297367765Y-138728157D01*
X297415001Y-138696595D01*
X297415001Y-141573333D01*
X297261645Y-141203076D01*
X296871358Y-140774817D01*
X296346892Y-140528514D01*
X296117000Y-140649181D01*
X296117000Y-141843000D01*
X296137000Y-141843000D01*
X296137000Y-142097000D01*
X296117000Y-142097000D01*
X296117000Y-142117000D01*
X295863000Y-142117000D01*
X295863000Y-142097000D01*
X294669845Y-142097000D01*
X294548524Y-142326890D01*
X294632235Y-142529000D01*
X293642406Y-142529000D01*
X293789144Y-142117698D01*
X293763889Y-141613110D01*
X294548524Y-141613110D01*
X294669845Y-141843000D01*
X295863000Y-141843000D01*
X295863000Y-140649181D01*
X295633108Y-140528514D01*
X295108642Y-140774817D01*
X294718355Y-141203076D01*
X294548524Y-141613110D01*
X293763889Y-141613110D01*
X293761362Y-141562632D01*
X293602397Y-141178857D01*
X293360213Y-141109392D01*
X292559605Y-141910000D01*
X292573748Y-141924143D01*
X292394143Y-142103748D01*
X292380000Y-142089605D01*
X292365858Y-142103748D01*
X292186253Y-141924143D01*
X292200395Y-141910000D01*
X291399787Y-141109392D01*
X291157603Y-141178857D01*
X290970856Y-141702302D01*
X290998638Y-142257368D01*
X291003456Y-142269000D01*
X290475904Y-142269000D01*
X290416436Y-142180000D01*
X290518157Y-142027765D01*
X290567440Y-141780000D01*
X290567440Y-140980000D01*
X290530336Y-140793462D01*
X290589000Y-140651833D01*
X290589000Y-140620580D01*
X290707989Y-140620580D01*
X290837515Y-140707127D01*
X291085280Y-140756410D01*
X291629121Y-140756410D01*
X291579392Y-140929787D01*
X292380000Y-141730395D01*
X293180608Y-140929787D01*
X293111143Y-140687603D01*
X293078913Y-140676104D01*
X293242529Y-140566779D01*
X293382877Y-140356735D01*
X293432160Y-140108970D01*
X293432160Y-139710190D01*
X293427741Y-139687976D01*
X293466998Y-139680167D01*
X293702182Y-139523022D01*
X293741849Y-139463656D01*
X294824205Y-138381300D01*
X294962191Y-138587809D01*
G36*
X267572998Y-142264500D02*
X267553000Y-142264500D01*
X267553000Y-142246250D01*
X267572998Y-142226252D01*
X267572998Y-142264500D01*
X267572998Y-142264500D01*
G37*
X267572998Y-142264500D02*
X267553000Y-142264500D01*
X267553000Y-142246250D01*
X267572998Y-142226252D01*
X267572998Y-142264500D01*
G36*
X268812998Y-142264500D02*
X268774750Y-142264500D01*
X268812998Y-142226252D01*
X268812998Y-142264500D01*
X268812998Y-142264500D01*
G37*
X268812998Y-142264500D02*
X268774750Y-142264500D01*
X268812998Y-142226252D01*
X268812998Y-142264500D01*
G36*
X267865250Y-142264500D02*
X267827002Y-142264500D01*
X267827002Y-142226252D01*
X267865250Y-142264500D01*
X267865250Y-142264500D01*
G37*
X267865250Y-142264500D02*
X267827002Y-142264500D01*
X267827002Y-142226252D01*
X267865250Y-142264500D01*
G36*
X269087000Y-142246250D02*
X269087000Y-142264500D01*
X269067002Y-142264500D01*
X269067002Y-142226252D01*
X269087000Y-142246250D01*
X269087000Y-142246250D01*
G37*
X269087000Y-142246250D02*
X269087000Y-142264500D01*
X269067002Y-142264500D01*
X269067002Y-142226252D01*
X269087000Y-142246250D01*
G36*
X271916030Y-139914250D02*
X272074780Y-140073000D01*
X272650725Y-140073000D01*
X272650725Y-140053000D01*
X272802750Y-140053000D01*
X272802750Y-140499720D01*
X272850115Y-140737842D01*
X272850115Y-140975970D01*
X273008865Y-141134720D01*
X273076119Y-141134720D01*
X273188128Y-141088324D01*
X273202425Y-141097877D01*
X273353343Y-141127896D01*
X273324033Y-141171762D01*
X272997500Y-141498295D01*
X272978047Y-141451332D01*
X272799419Y-141272703D01*
X272566030Y-141176030D01*
X272425750Y-141176030D01*
X272267000Y-141334780D01*
X272267000Y-141910725D01*
X272287000Y-141910725D01*
X272287000Y-142062750D01*
X271840280Y-142062750D01*
X271652431Y-142100115D01*
X271577842Y-142100115D01*
X271339720Y-142052750D01*
X270893000Y-142052750D01*
X270893000Y-141900725D01*
X270913000Y-141900725D01*
X270913000Y-141324780D01*
X271167000Y-141324780D01*
X271167000Y-141900725D01*
X271354030Y-141900725D01*
X271364030Y-141910725D01*
X272013000Y-141910725D01*
X272013000Y-141334780D01*
X271854250Y-141176030D01*
X271713970Y-141176030D01*
X271602071Y-141222380D01*
X271466030Y-141166030D01*
X271325750Y-141166030D01*
X271167000Y-141324780D01*
X270913000Y-141324780D01*
X270754250Y-141166030D01*
X270613970Y-141166030D01*
X270611000Y-141167260D01*
X270611000Y-140826236D01*
X270823658Y-140613578D01*
X270876606Y-140485750D01*
X271916030Y-140485750D01*
X271916030Y-140626030D01*
X272012703Y-140859419D01*
X272191332Y-141038047D01*
X272424721Y-141134720D01*
X272491975Y-141134720D01*
X272650725Y-140975970D01*
X272650725Y-140327000D01*
X272074780Y-140327000D01*
X271916030Y-140485750D01*
X270876606Y-140485750D01*
X270959000Y-140286833D01*
X270959000Y-139933167D01*
X270904658Y-139801974D01*
X271090500Y-139838940D01*
X271725500Y-139838940D01*
X271916030Y-139801042D01*
X271916030Y-139914250D01*
X271916030Y-139914250D01*
G37*
X271916030Y-139914250D02*
X272074780Y-140073000D01*
X272650725Y-140073000D01*
X272650725Y-140053000D01*
X272802750Y-140053000D01*
X272802750Y-140499720D01*
X272850115Y-140737842D01*
X272850115Y-140975970D01*
X273008865Y-141134720D01*
X273076119Y-141134720D01*
X273188128Y-141088324D01*
X273202425Y-141097877D01*
X273353343Y-141127896D01*
X273324033Y-141171762D01*
X272997500Y-141498295D01*
X272978047Y-141451332D01*
X272799419Y-141272703D01*
X272566030Y-141176030D01*
X272425750Y-141176030D01*
X272267000Y-141334780D01*
X272267000Y-141910725D01*
X272287000Y-141910725D01*
X272287000Y-142062750D01*
X271840280Y-142062750D01*
X271652431Y-142100115D01*
X271577842Y-142100115D01*
X271339720Y-142052750D01*
X270893000Y-142052750D01*
X270893000Y-141900725D01*
X270913000Y-141900725D01*
X270913000Y-141324780D01*
X271167000Y-141324780D01*
X271167000Y-141900725D01*
X271354030Y-141900725D01*
X271364030Y-141910725D01*
X272013000Y-141910725D01*
X272013000Y-141334780D01*
X271854250Y-141176030D01*
X271713970Y-141176030D01*
X271602071Y-141222380D01*
X271466030Y-141166030D01*
X271325750Y-141166030D01*
X271167000Y-141324780D01*
X270913000Y-141324780D01*
X270754250Y-141166030D01*
X270613970Y-141166030D01*
X270611000Y-141167260D01*
X270611000Y-140826236D01*
X270823658Y-140613578D01*
X270876606Y-140485750D01*
X271916030Y-140485750D01*
X271916030Y-140626030D01*
X272012703Y-140859419D01*
X272191332Y-141038047D01*
X272424721Y-141134720D01*
X272491975Y-141134720D01*
X272650725Y-140975970D01*
X272650725Y-140327000D01*
X272074780Y-140327000D01*
X271916030Y-140485750D01*
X270876606Y-140485750D01*
X270959000Y-140286833D01*
X270959000Y-139933167D01*
X270904658Y-139801974D01*
X271090500Y-139838940D01*
X271725500Y-139838940D01*
X271916030Y-139801042D01*
X271916030Y-139914250D01*
G36*
X268812998Y-141273748D02*
X268774750Y-141235500D01*
X268812998Y-141235500D01*
X268812998Y-141273748D01*
X268812998Y-141273748D01*
G37*
X268812998Y-141273748D02*
X268774750Y-141235500D01*
X268812998Y-141235500D01*
X268812998Y-141273748D01*
G36*
X267827002Y-141273748D02*
X267827002Y-141235500D01*
X267865250Y-141235500D01*
X267827002Y-141273748D01*
X267827002Y-141273748D01*
G37*
X267827002Y-141273748D02*
X267827002Y-141235500D01*
X267865250Y-141235500D01*
X267827002Y-141273748D01*
G36*
X269087000Y-141253750D02*
X269067002Y-141273748D01*
X269067002Y-141235500D01*
X269087000Y-141235500D01*
X269087000Y-141253750D01*
X269087000Y-141253750D01*
G37*
X269087000Y-141253750D02*
X269067002Y-141273748D01*
X269067002Y-141235500D01*
X269087000Y-141235500D01*
X269087000Y-141253750D01*
G36*
X267572998Y-141273748D02*
X267553000Y-141253750D01*
X267553000Y-141235500D01*
X267572998Y-141235500D01*
X267572998Y-141273748D01*
X267572998Y-141273748D01*
G37*
X267572998Y-141273748D02*
X267553000Y-141253750D01*
X267553000Y-141235500D01*
X267572998Y-141235500D01*
X267572998Y-141273748D01*
G36*
X283530280Y-137457250D02*
X283977000Y-137457250D01*
X283977000Y-137609275D01*
X283957000Y-137609275D01*
X283957000Y-138185220D01*
X284115750Y-138343970D01*
X284164314Y-138343970D01*
X284156030Y-138363970D01*
X284156030Y-138504250D01*
X284314780Y-138663000D01*
X284890725Y-138663000D01*
X284890725Y-138643000D01*
X285042750Y-138643000D01*
X285042750Y-139089720D01*
X285090115Y-139327842D01*
X285090115Y-139565970D01*
X285248865Y-139724720D01*
X285316119Y-139724720D01*
X285428128Y-139678324D01*
X285442425Y-139687877D01*
X285690190Y-139737160D01*
X286088970Y-139737160D01*
X286336735Y-139687877D01*
X286546779Y-139547529D01*
X286687127Y-139337485D01*
X286736410Y-139089720D01*
X286736410Y-138981915D01*
X287633137Y-139878643D01*
X287617000Y-139894780D01*
X287617000Y-140470725D01*
X287637000Y-140470725D01*
X287637000Y-140585764D01*
X287600014Y-140622750D01*
X287190280Y-140622750D01*
X286952158Y-140670115D01*
X286875077Y-140670115D01*
X286832765Y-140641843D01*
X286585000Y-140592560D01*
X285835000Y-140592560D01*
X285587235Y-140641843D01*
X285377191Y-140782191D01*
X285236843Y-140992235D01*
X285236580Y-140993555D01*
X285119698Y-140876673D01*
X284929740Y-140797990D01*
X284911750Y-140780000D01*
X284783209Y-140780000D01*
X284838157Y-140697765D01*
X284887440Y-140450000D01*
X284887440Y-140244721D01*
X286555280Y-140244721D01*
X286555280Y-140311975D01*
X286714030Y-140470725D01*
X287363000Y-140470725D01*
X287363000Y-139894780D01*
X287204250Y-139736030D01*
X287063970Y-139736030D01*
X286830581Y-139832703D01*
X286651953Y-140011332D01*
X286555280Y-140244721D01*
X284887440Y-140244721D01*
X284887440Y-139650000D01*
X284874044Y-139582651D01*
X284890725Y-139565970D01*
X284890725Y-138917000D01*
X284314780Y-138917000D01*
X284229220Y-139002560D01*
X283440000Y-139002560D01*
X283192235Y-139051843D01*
X283040000Y-139153564D01*
X282887765Y-139051843D01*
X282640000Y-139002560D01*
X282350145Y-139002560D01*
X282459419Y-138957297D01*
X282638047Y-138778668D01*
X282734720Y-138545279D01*
X282734720Y-138478025D01*
X282577458Y-138320763D01*
X282713000Y-138185220D01*
X282713000Y-137982855D01*
X282734720Y-137961135D01*
X282734720Y-137893881D01*
X282713000Y-137841444D01*
X282713000Y-137768025D01*
X282895280Y-137768025D01*
X282895280Y-137835279D01*
X282967000Y-138008426D01*
X282967000Y-138185220D01*
X283125750Y-138343970D01*
X283266030Y-138343970D01*
X283335000Y-138315402D01*
X283403970Y-138343970D01*
X283544250Y-138343970D01*
X283703000Y-138185220D01*
X283703000Y-138008426D01*
X283774720Y-137835279D01*
X283774720Y-137768025D01*
X283703000Y-137696305D01*
X283703000Y-137609275D01*
X282967000Y-137609275D01*
X282967000Y-137696305D01*
X282895280Y-137768025D01*
X282713000Y-137768025D01*
X282713000Y-137691546D01*
X282747160Y-137519810D01*
X282747160Y-137457250D01*
X283139720Y-137457250D01*
X283335000Y-137418407D01*
X283530280Y-137457250D01*
X283530280Y-137457250D01*
G37*
X283530280Y-137457250D02*
X283977000Y-137457250D01*
X283977000Y-137609275D01*
X283957000Y-137609275D01*
X283957000Y-138185220D01*
X284115750Y-138343970D01*
X284164314Y-138343970D01*
X284156030Y-138363970D01*
X284156030Y-138504250D01*
X284314780Y-138663000D01*
X284890725Y-138663000D01*
X284890725Y-138643000D01*
X285042750Y-138643000D01*
X285042750Y-139089720D01*
X285090115Y-139327842D01*
X285090115Y-139565970D01*
X285248865Y-139724720D01*
X285316119Y-139724720D01*
X285428128Y-139678324D01*
X285442425Y-139687877D01*
X285690190Y-139737160D01*
X286088970Y-139737160D01*
X286336735Y-139687877D01*
X286546779Y-139547529D01*
X286687127Y-139337485D01*
X286736410Y-139089720D01*
X286736410Y-138981915D01*
X287633137Y-139878643D01*
X287617000Y-139894780D01*
X287617000Y-140470725D01*
X287637000Y-140470725D01*
X287637000Y-140585764D01*
X287600014Y-140622750D01*
X287190280Y-140622750D01*
X286952158Y-140670115D01*
X286875077Y-140670115D01*
X286832765Y-140641843D01*
X286585000Y-140592560D01*
X285835000Y-140592560D01*
X285587235Y-140641843D01*
X285377191Y-140782191D01*
X285236843Y-140992235D01*
X285236580Y-140993555D01*
X285119698Y-140876673D01*
X284929740Y-140797990D01*
X284911750Y-140780000D01*
X284783209Y-140780000D01*
X284838157Y-140697765D01*
X284887440Y-140450000D01*
X284887440Y-140244721D01*
X286555280Y-140244721D01*
X286555280Y-140311975D01*
X286714030Y-140470725D01*
X287363000Y-140470725D01*
X287363000Y-139894780D01*
X287204250Y-139736030D01*
X287063970Y-139736030D01*
X286830581Y-139832703D01*
X286651953Y-140011332D01*
X286555280Y-140244721D01*
X284887440Y-140244721D01*
X284887440Y-139650000D01*
X284874044Y-139582651D01*
X284890725Y-139565970D01*
X284890725Y-138917000D01*
X284314780Y-138917000D01*
X284229220Y-139002560D01*
X283440000Y-139002560D01*
X283192235Y-139051843D01*
X283040000Y-139153564D01*
X282887765Y-139051843D01*
X282640000Y-139002560D01*
X282350145Y-139002560D01*
X282459419Y-138957297D01*
X282638047Y-138778668D01*
X282734720Y-138545279D01*
X282734720Y-138478025D01*
X282577458Y-138320763D01*
X282713000Y-138185220D01*
X282713000Y-137982855D01*
X282734720Y-137961135D01*
X282734720Y-137893881D01*
X282713000Y-137841444D01*
X282713000Y-137768025D01*
X282895280Y-137768025D01*
X282895280Y-137835279D01*
X282967000Y-138008426D01*
X282967000Y-138185220D01*
X283125750Y-138343970D01*
X283266030Y-138343970D01*
X283335000Y-138315402D01*
X283403970Y-138343970D01*
X283544250Y-138343970D01*
X283703000Y-138185220D01*
X283703000Y-138008426D01*
X283774720Y-137835279D01*
X283774720Y-137768025D01*
X283703000Y-137696305D01*
X283703000Y-137609275D01*
X282967000Y-137609275D01*
X282967000Y-137696305D01*
X282895280Y-137768025D01*
X282713000Y-137768025D01*
X282713000Y-137691546D01*
X282747160Y-137519810D01*
X282747160Y-137457250D01*
X283139720Y-137457250D01*
X283335000Y-137418407D01*
X283530280Y-137457250D01*
G36*
X271322582Y-132160253D02*
X271087398Y-132317398D01*
X271047731Y-132376764D01*
X271036762Y-132387733D01*
X270977398Y-132427399D01*
X270937733Y-132486762D01*
X270937732Y-132486763D01*
X270921404Y-132511200D01*
X270820253Y-132662583D01*
X270779000Y-132869975D01*
X270779000Y-132869979D01*
X270765072Y-132940000D01*
X270779000Y-133010021D01*
X270779000Y-133552560D01*
X270674135Y-133552560D01*
X270734720Y-133491975D01*
X270734720Y-133424721D01*
X270673000Y-133275716D01*
X270673000Y-132623750D01*
X270514250Y-132465000D01*
X270223691Y-132465000D01*
X269990302Y-132561673D01*
X269811673Y-132740301D01*
X269738884Y-132916030D01*
X269672998Y-132916030D01*
X269672998Y-133074778D01*
X269514250Y-132916030D01*
X269373970Y-132916030D01*
X269140581Y-133012703D01*
X268961953Y-133191332D01*
X268865280Y-133424721D01*
X268865280Y-133491975D01*
X269024030Y-133650725D01*
X269673000Y-133650725D01*
X269673000Y-133603420D01*
X269927000Y-133603420D01*
X269927000Y-133627000D01*
X269873750Y-133627000D01*
X269715000Y-133785750D01*
X269715000Y-133802750D01*
X269500280Y-133802750D01*
X269262158Y-133850115D01*
X269024030Y-133850115D01*
X268865280Y-134008865D01*
X268865280Y-134076119D01*
X268911676Y-134188128D01*
X268902123Y-134202425D01*
X268852840Y-134450190D01*
X268852840Y-134848970D01*
X268902123Y-135096735D01*
X269042471Y-135306779D01*
X269252515Y-135447127D01*
X269500280Y-135496410D01*
X269949961Y-135496410D01*
X270102235Y-135598157D01*
X270350000Y-135647440D01*
X270785500Y-135647440D01*
X270785500Y-135714250D01*
X270944250Y-135873000D01*
X271611000Y-135873000D01*
X271611000Y-135853000D01*
X271865000Y-135853000D01*
X271865000Y-135873000D01*
X271885000Y-135873000D01*
X271885000Y-136127000D01*
X271865000Y-136127000D01*
X271865000Y-136147000D01*
X271611000Y-136147000D01*
X271611000Y-136127000D01*
X270944250Y-136127000D01*
X270785500Y-136285750D01*
X270785500Y-136697810D01*
X270882173Y-136931199D01*
X270889839Y-136938865D01*
X270883590Y-136970280D01*
X270883590Y-137097491D01*
X270855734Y-137139181D01*
X270855732Y-137139183D01*
X270761641Y-137280001D01*
X270738254Y-137315002D01*
X270702994Y-137492268D01*
X270691191Y-137551602D01*
X270632691Y-137590691D01*
X270492343Y-137800735D01*
X270443060Y-138048500D01*
X270443060Y-139191500D01*
X270467074Y-139312227D01*
X270246833Y-139221000D01*
X269893167Y-139221000D01*
X269733296Y-139287221D01*
X269732972Y-139287004D01*
X269736410Y-139269720D01*
X269736410Y-138670280D01*
X269687127Y-138422515D01*
X269546779Y-138212471D01*
X269336735Y-138072123D01*
X269088970Y-138022840D01*
X268690190Y-138022840D01*
X268442425Y-138072123D01*
X268440000Y-138073743D01*
X268437575Y-138072123D01*
X268189810Y-138022840D01*
X267791030Y-138022840D01*
X267543265Y-138072123D01*
X267333221Y-138212471D01*
X267192873Y-138422515D01*
X267143590Y-138670280D01*
X267143590Y-138803677D01*
X267113988Y-138847980D01*
X267055817Y-139140420D01*
X267070501Y-139214239D01*
X267070501Y-139247351D01*
X266922235Y-139276843D01*
X266712191Y-139417191D01*
X266585000Y-139607544D01*
X266585000Y-132127000D01*
X271489755Y-132127000D01*
X271322582Y-132160253D01*
X271322582Y-132160253D01*
G37*
X271322582Y-132160253D02*
X271087398Y-132317398D01*
X271047731Y-132376764D01*
X271036762Y-132387733D01*
X270977398Y-132427399D01*
X270937733Y-132486762D01*
X270937732Y-132486763D01*
X270921404Y-132511200D01*
X270820253Y-132662583D01*
X270779000Y-132869975D01*
X270779000Y-132869979D01*
X270765072Y-132940000D01*
X270779000Y-133010021D01*
X270779000Y-133552560D01*
X270674135Y-133552560D01*
X270734720Y-133491975D01*
X270734720Y-133424721D01*
X270673000Y-133275716D01*
X270673000Y-132623750D01*
X270514250Y-132465000D01*
X270223691Y-132465000D01*
X269990302Y-132561673D01*
X269811673Y-132740301D01*
X269738884Y-132916030D01*
X269672998Y-132916030D01*
X269672998Y-133074778D01*
X269514250Y-132916030D01*
X269373970Y-132916030D01*
X269140581Y-133012703D01*
X268961953Y-133191332D01*
X268865280Y-133424721D01*
X268865280Y-133491975D01*
X269024030Y-133650725D01*
X269673000Y-133650725D01*
X269673000Y-133603420D01*
X269927000Y-133603420D01*
X269927000Y-133627000D01*
X269873750Y-133627000D01*
X269715000Y-133785750D01*
X269715000Y-133802750D01*
X269500280Y-133802750D01*
X269262158Y-133850115D01*
X269024030Y-133850115D01*
X268865280Y-134008865D01*
X268865280Y-134076119D01*
X268911676Y-134188128D01*
X268902123Y-134202425D01*
X268852840Y-134450190D01*
X268852840Y-134848970D01*
X268902123Y-135096735D01*
X269042471Y-135306779D01*
X269252515Y-135447127D01*
X269500280Y-135496410D01*
X269949961Y-135496410D01*
X270102235Y-135598157D01*
X270350000Y-135647440D01*
X270785500Y-135647440D01*
X270785500Y-135714250D01*
X270944250Y-135873000D01*
X271611000Y-135873000D01*
X271611000Y-135853000D01*
X271865000Y-135853000D01*
X271865000Y-135873000D01*
X271885000Y-135873000D01*
X271885000Y-136127000D01*
X271865000Y-136127000D01*
X271865000Y-136147000D01*
X271611000Y-136147000D01*
X271611000Y-136127000D01*
X270944250Y-136127000D01*
X270785500Y-136285750D01*
X270785500Y-136697810D01*
X270882173Y-136931199D01*
X270889839Y-136938865D01*
X270883590Y-136970280D01*
X270883590Y-137097491D01*
X270855734Y-137139181D01*
X270855732Y-137139183D01*
X270761641Y-137280001D01*
X270738254Y-137315002D01*
X270702994Y-137492268D01*
X270691191Y-137551602D01*
X270632691Y-137590691D01*
X270492343Y-137800735D01*
X270443060Y-138048500D01*
X270443060Y-139191500D01*
X270467074Y-139312227D01*
X270246833Y-139221000D01*
X269893167Y-139221000D01*
X269733296Y-139287221D01*
X269732972Y-139287004D01*
X269736410Y-139269720D01*
X269736410Y-138670280D01*
X269687127Y-138422515D01*
X269546779Y-138212471D01*
X269336735Y-138072123D01*
X269088970Y-138022840D01*
X268690190Y-138022840D01*
X268442425Y-138072123D01*
X268440000Y-138073743D01*
X268437575Y-138072123D01*
X268189810Y-138022840D01*
X267791030Y-138022840D01*
X267543265Y-138072123D01*
X267333221Y-138212471D01*
X267192873Y-138422515D01*
X267143590Y-138670280D01*
X267143590Y-138803677D01*
X267113988Y-138847980D01*
X267055817Y-139140420D01*
X267070501Y-139214239D01*
X267070501Y-139247351D01*
X266922235Y-139276843D01*
X266712191Y-139417191D01*
X266585000Y-139607544D01*
X266585000Y-132127000D01*
X271489755Y-132127000D01*
X271322582Y-132160253D01*
G36*
X274019001Y-139196580D02*
X273943000Y-139196580D01*
X273943000Y-139149275D01*
X273923000Y-139149275D01*
X273923000Y-138997250D01*
X274019001Y-138997250D01*
X274019001Y-139196580D01*
X274019001Y-139196580D01*
G37*
X274019001Y-139196580D02*
X273943000Y-139196580D01*
X273943000Y-139149275D01*
X273923000Y-139149275D01*
X273923000Y-138997250D01*
X274019001Y-138997250D01*
X274019001Y-139196580D01*
G36*
X282180581Y-138247297D02*
X282354351Y-138319275D01*
X281927000Y-138319275D01*
X281927000Y-138366580D01*
X281673000Y-138366580D01*
X281673000Y-138319275D01*
X281653000Y-138319275D01*
X281653000Y-138167250D01*
X282099720Y-138167250D01*
X282100399Y-138167115D01*
X282180581Y-138247297D01*
X282180581Y-138247297D01*
G37*
X282180581Y-138247297D02*
X282354351Y-138319275D01*
X281927000Y-138319275D01*
X281927000Y-138366580D01*
X281673000Y-138366580D01*
X281673000Y-138319275D01*
X281653000Y-138319275D01*
X281653000Y-138167250D01*
X282099720Y-138167250D01*
X282100399Y-138167115D01*
X282180581Y-138247297D01*
G36*
X286224500Y-134680500D02*
X287295500Y-134680500D01*
X287295500Y-134660500D01*
X287549500Y-134660500D01*
X287549500Y-134680500D01*
X287569500Y-134680500D01*
X287569500Y-134934500D01*
X287549500Y-134934500D01*
X287549500Y-136005500D01*
X287569500Y-136005500D01*
X287569500Y-136259500D01*
X287549500Y-136259500D01*
X287549500Y-136279500D01*
X287295500Y-136279500D01*
X287295500Y-136259500D01*
X286224500Y-136259500D01*
X286224500Y-136279500D01*
X285970500Y-136279500D01*
X285970500Y-136259500D01*
X285950500Y-136259500D01*
X285950500Y-136005500D01*
X285970500Y-136005500D01*
X285970500Y-135093250D01*
X286125000Y-135093250D01*
X286125000Y-135846750D01*
X286224500Y-135946250D01*
X286224500Y-136005500D01*
X286283750Y-136005500D01*
X286383250Y-136105000D01*
X287136750Y-136105000D01*
X287236250Y-136005500D01*
X287295500Y-136005500D01*
X287295500Y-135946250D01*
X287395000Y-135846750D01*
X287395000Y-135093250D01*
X287295500Y-134993750D01*
X287295500Y-134934500D01*
X287236250Y-134934500D01*
X287136750Y-134835000D01*
X286383250Y-134835000D01*
X286283750Y-134934500D01*
X286224500Y-134934500D01*
X286224500Y-134993750D01*
X286125000Y-135093250D01*
X285970500Y-135093250D01*
X285970500Y-134934500D01*
X285950500Y-134934500D01*
X285950500Y-134680500D01*
X285970500Y-134680500D01*
X285970500Y-134660500D01*
X286224500Y-134660500D01*
X286224500Y-134680500D01*
X286224500Y-134680500D01*
G37*
X286224500Y-134680500D02*
X287295500Y-134680500D01*
X287295500Y-134660500D01*
X287549500Y-134660500D01*
X287549500Y-134680500D01*
X287569500Y-134680500D01*
X287569500Y-134934500D01*
X287549500Y-134934500D01*
X287549500Y-136005500D01*
X287569500Y-136005500D01*
X287569500Y-136259500D01*
X287549500Y-136259500D01*
X287549500Y-136279500D01*
X287295500Y-136279500D01*
X287295500Y-136259500D01*
X286224500Y-136259500D01*
X286224500Y-136279500D01*
X285970500Y-136279500D01*
X285970500Y-136259500D01*
X285950500Y-136259500D01*
X285950500Y-136005500D01*
X285970500Y-136005500D01*
X285970500Y-135093250D01*
X286125000Y-135093250D01*
X286125000Y-135846750D01*
X286224500Y-135946250D01*
X286224500Y-136005500D01*
X286283750Y-136005500D01*
X286383250Y-136105000D01*
X287136750Y-136105000D01*
X287236250Y-136005500D01*
X287295500Y-136005500D01*
X287295500Y-135946250D01*
X287395000Y-135846750D01*
X287395000Y-135093250D01*
X287295500Y-134993750D01*
X287295500Y-134934500D01*
X287236250Y-134934500D01*
X287136750Y-134835000D01*
X286383250Y-134835000D01*
X286283750Y-134934500D01*
X286224500Y-134934500D01*
X286224500Y-134993750D01*
X286125000Y-135093250D01*
X285970500Y-135093250D01*
X285970500Y-134934500D01*
X285950500Y-134934500D01*
X285950500Y-134680500D01*
X285970500Y-134680500D01*
X285970500Y-134660500D01*
X286224500Y-134660500D01*
X286224500Y-134680500D01*
G36*
X276211250Y-132204250D02*
X277163750Y-132204250D01*
X277183750Y-132184250D01*
X277303750Y-132184250D01*
X277323750Y-132204250D01*
X278276250Y-132204250D01*
X278296250Y-132184250D01*
X278416250Y-132184250D01*
X278436250Y-132204250D01*
X279388750Y-132204250D01*
X279408750Y-132184250D01*
X279595750Y-132184250D01*
X279595750Y-132204250D01*
X279615750Y-132204250D01*
X279615750Y-132391250D01*
X279595750Y-132411250D01*
X279595750Y-133363750D01*
X279615750Y-133383750D01*
X279615750Y-133503750D01*
X279595750Y-133523750D01*
X279595750Y-134476250D01*
X279615750Y-134496250D01*
X279615750Y-134616250D01*
X279595750Y-134636250D01*
X279595750Y-135588750D01*
X279615750Y-135608750D01*
X279615750Y-135795750D01*
X279595750Y-135795750D01*
X279595750Y-135815750D01*
X279408750Y-135815750D01*
X279388750Y-135795750D01*
X278436250Y-135795750D01*
X278416250Y-135815750D01*
X278296250Y-135815750D01*
X278276250Y-135795750D01*
X277323750Y-135795750D01*
X277303750Y-135815750D01*
X277183750Y-135815750D01*
X277163750Y-135795750D01*
X276211250Y-135795750D01*
X276191250Y-135815750D01*
X276004250Y-135815750D01*
X276004250Y-135795750D01*
X275984250Y-135795750D01*
X275984250Y-135608750D01*
X276004250Y-135588750D01*
X276004250Y-134636250D01*
X275984250Y-134616250D01*
X275984250Y-134496250D01*
X276004250Y-134476250D01*
X276004250Y-133523750D01*
X275984250Y-133503750D01*
X275984250Y-133383750D01*
X276004250Y-133363750D01*
X276004250Y-132617000D01*
X276052500Y-132617000D01*
X276052500Y-133158000D01*
X276211250Y-133316750D01*
X276218725Y-133316750D01*
X276258250Y-133356276D01*
X276258250Y-133363750D01*
X276338250Y-133443750D01*
X276258250Y-133523750D01*
X276258250Y-133531224D01*
X276218725Y-133570750D01*
X276211250Y-133570750D01*
X276052500Y-133729500D01*
X276052500Y-134270500D01*
X276211250Y-134429250D01*
X276218725Y-134429250D01*
X276258250Y-134468776D01*
X276258250Y-134476250D01*
X276338250Y-134556250D01*
X276258250Y-134636250D01*
X276258250Y-134643724D01*
X276218725Y-134683250D01*
X276211250Y-134683250D01*
X276052500Y-134842000D01*
X276052500Y-135383000D01*
X276211250Y-135541750D01*
X276218725Y-135541750D01*
X276258250Y-135581276D01*
X276258250Y-135588750D01*
X276417000Y-135747500D01*
X276958000Y-135747500D01*
X277116750Y-135588750D01*
X277116750Y-135581276D01*
X277156275Y-135541750D01*
X277163750Y-135541750D01*
X277243750Y-135461750D01*
X277323750Y-135541750D01*
X277331225Y-135541750D01*
X277370750Y-135581276D01*
X277370750Y-135588750D01*
X277529500Y-135747500D01*
X278070500Y-135747500D01*
X278229250Y-135588750D01*
X278229250Y-135581276D01*
X278268775Y-135541750D01*
X278276250Y-135541750D01*
X278356250Y-135461750D01*
X278436250Y-135541750D01*
X278443725Y-135541750D01*
X278483250Y-135581276D01*
X278483250Y-135588750D01*
X278642000Y-135747500D01*
X279183000Y-135747500D01*
X279341750Y-135588750D01*
X279341750Y-135581276D01*
X279381275Y-135541750D01*
X279388750Y-135541750D01*
X279547500Y-135383000D01*
X279547500Y-134842000D01*
X279388750Y-134683250D01*
X279381275Y-134683250D01*
X279341750Y-134643724D01*
X279341750Y-134636250D01*
X279261750Y-134556250D01*
X279341750Y-134476250D01*
X279341750Y-134468776D01*
X279381275Y-134429250D01*
X279388750Y-134429250D01*
X279547500Y-134270500D01*
X279547500Y-133729500D01*
X279388750Y-133570750D01*
X279381275Y-133570750D01*
X279341750Y-133531224D01*
X279341750Y-133523750D01*
X279261750Y-133443750D01*
X279341750Y-133363750D01*
X279341750Y-133356276D01*
X279381275Y-133316750D01*
X279388750Y-133316750D01*
X279547500Y-133158000D01*
X279547500Y-132617000D01*
X279388750Y-132458250D01*
X279381275Y-132458250D01*
X279341750Y-132418724D01*
X279341750Y-132411250D01*
X279183000Y-132252500D01*
X278642000Y-132252500D01*
X278483250Y-132411250D01*
X278483250Y-132418724D01*
X278443725Y-132458250D01*
X278436250Y-132458250D01*
X278356250Y-132538250D01*
X278276250Y-132458250D01*
X278268775Y-132458250D01*
X278229250Y-132418724D01*
X278229250Y-132411250D01*
X278070500Y-132252500D01*
X277529500Y-132252500D01*
X277370750Y-132411250D01*
X277370750Y-132418724D01*
X277331225Y-132458250D01*
X277323750Y-132458250D01*
X277243750Y-132538250D01*
X277163750Y-132458250D01*
X277156275Y-132458250D01*
X277116750Y-132418724D01*
X277116750Y-132411250D01*
X276958000Y-132252500D01*
X276417000Y-132252500D01*
X276258250Y-132411250D01*
X276258250Y-132418724D01*
X276218725Y-132458250D01*
X276211250Y-132458250D01*
X276052500Y-132617000D01*
X276004250Y-132617000D01*
X276004250Y-132411250D01*
X275984250Y-132391250D01*
X275984250Y-132204250D01*
X276004250Y-132204250D01*
X276004250Y-132184250D01*
X276191250Y-132184250D01*
X276211250Y-132204250D01*
X276211250Y-132204250D01*
G37*
X276211250Y-132204250D02*
X277163750Y-132204250D01*
X277183750Y-132184250D01*
X277303750Y-132184250D01*
X277323750Y-132204250D01*
X278276250Y-132204250D01*
X278296250Y-132184250D01*
X278416250Y-132184250D01*
X278436250Y-132204250D01*
X279388750Y-132204250D01*
X279408750Y-132184250D01*
X279595750Y-132184250D01*
X279595750Y-132204250D01*
X279615750Y-132204250D01*
X279615750Y-132391250D01*
X279595750Y-132411250D01*
X279595750Y-133363750D01*
X279615750Y-133383750D01*
X279615750Y-133503750D01*
X279595750Y-133523750D01*
X279595750Y-134476250D01*
X279615750Y-134496250D01*
X279615750Y-134616250D01*
X279595750Y-134636250D01*
X279595750Y-135588750D01*
X279615750Y-135608750D01*
X279615750Y-135795750D01*
X279595750Y-135795750D01*
X279595750Y-135815750D01*
X279408750Y-135815750D01*
X279388750Y-135795750D01*
X278436250Y-135795750D01*
X278416250Y-135815750D01*
X278296250Y-135815750D01*
X278276250Y-135795750D01*
X277323750Y-135795750D01*
X277303750Y-135815750D01*
X277183750Y-135815750D01*
X277163750Y-135795750D01*
X276211250Y-135795750D01*
X276191250Y-135815750D01*
X276004250Y-135815750D01*
X276004250Y-135795750D01*
X275984250Y-135795750D01*
X275984250Y-135608750D01*
X276004250Y-135588750D01*
X276004250Y-134636250D01*
X275984250Y-134616250D01*
X275984250Y-134496250D01*
X276004250Y-134476250D01*
X276004250Y-133523750D01*
X275984250Y-133503750D01*
X275984250Y-133383750D01*
X276004250Y-133363750D01*
X276004250Y-132617000D01*
X276052500Y-132617000D01*
X276052500Y-133158000D01*
X276211250Y-133316750D01*
X276218725Y-133316750D01*
X276258250Y-133356276D01*
X276258250Y-133363750D01*
X276338250Y-133443750D01*
X276258250Y-133523750D01*
X276258250Y-133531224D01*
X276218725Y-133570750D01*
X276211250Y-133570750D01*
X276052500Y-133729500D01*
X276052500Y-134270500D01*
X276211250Y-134429250D01*
X276218725Y-134429250D01*
X276258250Y-134468776D01*
X276258250Y-134476250D01*
X276338250Y-134556250D01*
X276258250Y-134636250D01*
X276258250Y-134643724D01*
X276218725Y-134683250D01*
X276211250Y-134683250D01*
X276052500Y-134842000D01*
X276052500Y-135383000D01*
X276211250Y-135541750D01*
X276218725Y-135541750D01*
X276258250Y-135581276D01*
X276258250Y-135588750D01*
X276417000Y-135747500D01*
X276958000Y-135747500D01*
X277116750Y-135588750D01*
X277116750Y-135581276D01*
X277156275Y-135541750D01*
X277163750Y-135541750D01*
X277243750Y-135461750D01*
X277323750Y-135541750D01*
X277331225Y-135541750D01*
X277370750Y-135581276D01*
X277370750Y-135588750D01*
X277529500Y-135747500D01*
X278070500Y-135747500D01*
X278229250Y-135588750D01*
X278229250Y-135581276D01*
X278268775Y-135541750D01*
X278276250Y-135541750D01*
X278356250Y-135461750D01*
X278436250Y-135541750D01*
X278443725Y-135541750D01*
X278483250Y-135581276D01*
X278483250Y-135588750D01*
X278642000Y-135747500D01*
X279183000Y-135747500D01*
X279341750Y-135588750D01*
X279341750Y-135581276D01*
X279381275Y-135541750D01*
X279388750Y-135541750D01*
X279547500Y-135383000D01*
X279547500Y-134842000D01*
X279388750Y-134683250D01*
X279381275Y-134683250D01*
X279341750Y-134643724D01*
X279341750Y-134636250D01*
X279261750Y-134556250D01*
X279341750Y-134476250D01*
X279341750Y-134468776D01*
X279381275Y-134429250D01*
X279388750Y-134429250D01*
X279547500Y-134270500D01*
X279547500Y-133729500D01*
X279388750Y-133570750D01*
X279381275Y-133570750D01*
X279341750Y-133531224D01*
X279341750Y-133523750D01*
X279261750Y-133443750D01*
X279341750Y-133363750D01*
X279341750Y-133356276D01*
X279381275Y-133316750D01*
X279388750Y-133316750D01*
X279547500Y-133158000D01*
X279547500Y-132617000D01*
X279388750Y-132458250D01*
X279381275Y-132458250D01*
X279341750Y-132418724D01*
X279341750Y-132411250D01*
X279183000Y-132252500D01*
X278642000Y-132252500D01*
X278483250Y-132411250D01*
X278483250Y-132418724D01*
X278443725Y-132458250D01*
X278436250Y-132458250D01*
X278356250Y-132538250D01*
X278276250Y-132458250D01*
X278268775Y-132458250D01*
X278229250Y-132418724D01*
X278229250Y-132411250D01*
X278070500Y-132252500D01*
X277529500Y-132252500D01*
X277370750Y-132411250D01*
X277370750Y-132418724D01*
X277331225Y-132458250D01*
X277323750Y-132458250D01*
X277243750Y-132538250D01*
X277163750Y-132458250D01*
X277156275Y-132458250D01*
X277116750Y-132418724D01*
X277116750Y-132411250D01*
X276958000Y-132252500D01*
X276417000Y-132252500D01*
X276258250Y-132411250D01*
X276258250Y-132418724D01*
X276218725Y-132458250D01*
X276211250Y-132458250D01*
X276052500Y-132617000D01*
X276004250Y-132617000D01*
X276004250Y-132411250D01*
X275984250Y-132391250D01*
X275984250Y-132204250D01*
X276004250Y-132204250D01*
X276004250Y-132184250D01*
X276191250Y-132184250D01*
X276211250Y-132204250D01*
G36*
X277323750Y-134429250D02*
X277331225Y-134429250D01*
X277370750Y-134468776D01*
X277370750Y-134476250D01*
X277450750Y-134556250D01*
X277370750Y-134636250D01*
X277370750Y-134643724D01*
X277331225Y-134683250D01*
X277323750Y-134683250D01*
X277243750Y-134763250D01*
X277163750Y-134683250D01*
X277156275Y-134683250D01*
X277116750Y-134643724D01*
X277116750Y-134636250D01*
X277036750Y-134556250D01*
X277116750Y-134476250D01*
X277116750Y-134468776D01*
X277156275Y-134429250D01*
X277163750Y-134429250D01*
X277243750Y-134349250D01*
X277323750Y-134429250D01*
X277323750Y-134429250D01*
G37*
X277323750Y-134429250D02*
X277331225Y-134429250D01*
X277370750Y-134468776D01*
X277370750Y-134476250D01*
X277450750Y-134556250D01*
X277370750Y-134636250D01*
X277370750Y-134643724D01*
X277331225Y-134683250D01*
X277323750Y-134683250D01*
X277243750Y-134763250D01*
X277163750Y-134683250D01*
X277156275Y-134683250D01*
X277116750Y-134643724D01*
X277116750Y-134636250D01*
X277036750Y-134556250D01*
X277116750Y-134476250D01*
X277116750Y-134468776D01*
X277156275Y-134429250D01*
X277163750Y-134429250D01*
X277243750Y-134349250D01*
X277323750Y-134429250D01*
G36*
X278436250Y-134429250D02*
X278443725Y-134429250D01*
X278483250Y-134468776D01*
X278483250Y-134476250D01*
X278563250Y-134556250D01*
X278483250Y-134636250D01*
X278483250Y-134643724D01*
X278443725Y-134683250D01*
X278436250Y-134683250D01*
X278356250Y-134763250D01*
X278276250Y-134683250D01*
X278268775Y-134683250D01*
X278229250Y-134643724D01*
X278229250Y-134636250D01*
X278149250Y-134556250D01*
X278229250Y-134476250D01*
X278229250Y-134468776D01*
X278268775Y-134429250D01*
X278276250Y-134429250D01*
X278356250Y-134349250D01*
X278436250Y-134429250D01*
X278436250Y-134429250D01*
G37*
X278436250Y-134429250D02*
X278443725Y-134429250D01*
X278483250Y-134468776D01*
X278483250Y-134476250D01*
X278563250Y-134556250D01*
X278483250Y-134636250D01*
X278483250Y-134643724D01*
X278443725Y-134683250D01*
X278436250Y-134683250D01*
X278356250Y-134763250D01*
X278276250Y-134683250D01*
X278268775Y-134683250D01*
X278229250Y-134643724D01*
X278229250Y-134636250D01*
X278149250Y-134556250D01*
X278229250Y-134476250D01*
X278229250Y-134468776D01*
X278268775Y-134429250D01*
X278276250Y-134429250D01*
X278356250Y-134349250D01*
X278436250Y-134429250D01*
G36*
X277323750Y-133316750D02*
X277331225Y-133316750D01*
X277370750Y-133356276D01*
X277370750Y-133363750D01*
X277450750Y-133443750D01*
X277370750Y-133523750D01*
X277370750Y-133531224D01*
X277331225Y-133570750D01*
X277323750Y-133570750D01*
X277243750Y-133650750D01*
X277163750Y-133570750D01*
X277156275Y-133570750D01*
X277116750Y-133531224D01*
X277116750Y-133523750D01*
X277036750Y-133443750D01*
X277116750Y-133363750D01*
X277116750Y-133356276D01*
X277156275Y-133316750D01*
X277163750Y-133316750D01*
X277243750Y-133236750D01*
X277323750Y-133316750D01*
X277323750Y-133316750D01*
G37*
X277323750Y-133316750D02*
X277331225Y-133316750D01*
X277370750Y-133356276D01*
X277370750Y-133363750D01*
X277450750Y-133443750D01*
X277370750Y-133523750D01*
X277370750Y-133531224D01*
X277331225Y-133570750D01*
X277323750Y-133570750D01*
X277243750Y-133650750D01*
X277163750Y-133570750D01*
X277156275Y-133570750D01*
X277116750Y-133531224D01*
X277116750Y-133523750D01*
X277036750Y-133443750D01*
X277116750Y-133363750D01*
X277116750Y-133356276D01*
X277156275Y-133316750D01*
X277163750Y-133316750D01*
X277243750Y-133236750D01*
X277323750Y-133316750D01*
G36*
X278436250Y-133316750D02*
X278443725Y-133316750D01*
X278483250Y-133356276D01*
X278483250Y-133363750D01*
X278563250Y-133443750D01*
X278483250Y-133523750D01*
X278483250Y-133531224D01*
X278443725Y-133570750D01*
X278436250Y-133570750D01*
X278356250Y-133650750D01*
X278276250Y-133570750D01*
X278268775Y-133570750D01*
X278229250Y-133531224D01*
X278229250Y-133523750D01*
X278149250Y-133443750D01*
X278229250Y-133363750D01*
X278229250Y-133356276D01*
X278268775Y-133316750D01*
X278276250Y-133316750D01*
X278356250Y-133236750D01*
X278436250Y-133316750D01*
X278436250Y-133316750D01*
G37*
X278436250Y-133316750D02*
X278443725Y-133316750D01*
X278483250Y-133356276D01*
X278483250Y-133363750D01*
X278563250Y-133443750D01*
X278483250Y-133523750D01*
X278483250Y-133531224D01*
X278443725Y-133570750D01*
X278436250Y-133570750D01*
X278356250Y-133650750D01*
X278276250Y-133570750D01*
X278268775Y-133570750D01*
X278229250Y-133531224D01*
X278229250Y-133523750D01*
X278149250Y-133443750D01*
X278229250Y-133363750D01*
X278229250Y-133356276D01*
X278268775Y-133316750D01*
X278276250Y-133316750D01*
X278356250Y-133236750D01*
X278436250Y-133316750D01*
G36*
X272900280Y-134497250D02*
X273347000Y-134497250D01*
X273347000Y-134649275D01*
X273327000Y-134649275D01*
X273327000Y-134696580D01*
X273073000Y-134696580D01*
X273073000Y-134649275D01*
X272424030Y-134649275D01*
X272346305Y-134727000D01*
X272327000Y-134727000D01*
X272327000Y-134746305D01*
X272326305Y-134747000D01*
X272073000Y-134747000D01*
X272073000Y-134727000D01*
X272066481Y-134727000D01*
X272159747Y-134587418D01*
X272167699Y-134547440D01*
X272650000Y-134547440D01*
X272897765Y-134498157D01*
X272899388Y-134497073D01*
X272900280Y-134497250D01*
X272900280Y-134497250D01*
G37*
X272900280Y-134497250D02*
X273347000Y-134497250D01*
X273347000Y-134649275D01*
X273327000Y-134649275D01*
X273327000Y-134696580D01*
X273073000Y-134696580D01*
X273073000Y-134649275D01*
X272424030Y-134649275D01*
X272346305Y-134727000D01*
X272327000Y-134727000D01*
X272327000Y-134746305D01*
X272326305Y-134747000D01*
X272073000Y-134747000D01*
X272073000Y-134727000D01*
X272066481Y-134727000D01*
X272159747Y-134587418D01*
X272167699Y-134547440D01*
X272650000Y-134547440D01*
X272897765Y-134498157D01*
X272899388Y-134497073D01*
X272900280Y-134497250D01*
G36*
X286372750Y-130869720D02*
X286407615Y-131045000D01*
X286372750Y-131220280D01*
X286372750Y-131617244D01*
X286173420Y-131417915D01*
X286173420Y-131393275D01*
X286173695Y-131393000D01*
X286220725Y-131393000D01*
X286220725Y-130697000D01*
X286173695Y-130697000D01*
X286173420Y-130696725D01*
X286173420Y-130633816D01*
X286203658Y-130603578D01*
X286278456Y-130423000D01*
X286372750Y-130423000D01*
X286372750Y-130869720D01*
X286372750Y-130869720D01*
G37*
X286372750Y-130869720D02*
X286407615Y-131045000D01*
X286372750Y-131220280D01*
X286372750Y-131617244D01*
X286173420Y-131417915D01*
X286173420Y-131393275D01*
X286173695Y-131393000D01*
X286220725Y-131393000D01*
X286220725Y-130697000D01*
X286173695Y-130697000D01*
X286173420Y-130696725D01*
X286173420Y-130633816D01*
X286203658Y-130603578D01*
X286278456Y-130423000D01*
X286372750Y-130423000D01*
X286372750Y-130869720D01*
G36*
X294772560Y-126239000D02*
X293990020Y-126239000D01*
X293919999Y-126225072D01*
X293849978Y-126239000D01*
X293849974Y-126239000D01*
X293642582Y-126280253D01*
X293407398Y-126437398D01*
X293367733Y-126496761D01*
X291386342Y-128478153D01*
X291326979Y-128517818D01*
X291287314Y-128577181D01*
X291287312Y-128577183D01*
X291196233Y-128713493D01*
X291169834Y-128753002D01*
X291145512Y-128875279D01*
X291114652Y-129030420D01*
X291128581Y-129100446D01*
X291128581Y-130398508D01*
X291026030Y-130356030D01*
X290885750Y-130356030D01*
X290727000Y-130514780D01*
X290727000Y-131090725D01*
X290747000Y-131090725D01*
X290747000Y-131242750D01*
X290300280Y-131242750D01*
X290062158Y-131290115D01*
X289887021Y-131290115D01*
X289799720Y-131272750D01*
X289353000Y-131272750D01*
X289353000Y-131120725D01*
X289373000Y-131120725D01*
X289373000Y-130544780D01*
X289627000Y-130544780D01*
X289627000Y-131120725D01*
X290275970Y-131120725D01*
X290305970Y-131090725D01*
X290473000Y-131090725D01*
X290473000Y-130514780D01*
X290314250Y-130356030D01*
X290173970Y-130356030D01*
X290013787Y-130422380D01*
X289926030Y-130386030D01*
X289785750Y-130386030D01*
X289627000Y-130544780D01*
X289373000Y-130544780D01*
X289214250Y-130386030D01*
X289165000Y-130386030D01*
X289165000Y-130382998D01*
X289006252Y-130382998D01*
X289165000Y-130224250D01*
X289165000Y-130083691D01*
X289068327Y-129850302D01*
X288889699Y-129671673D01*
X288798386Y-129633850D01*
X288928658Y-129503578D01*
X289064000Y-129176833D01*
X289064000Y-128823167D01*
X289029093Y-128738893D01*
X289046830Y-128649720D01*
X289046830Y-128477000D01*
X289198855Y-128477000D01*
X289198855Y-129125970D01*
X289357605Y-129284720D01*
X289424859Y-129284720D01*
X289658248Y-129188047D01*
X289836877Y-129009419D01*
X289933550Y-128776030D01*
X289933550Y-128635750D01*
X289774800Y-128477000D01*
X289198855Y-128477000D01*
X289046830Y-128477000D01*
X289046830Y-128050280D01*
X289027161Y-127951398D01*
X289072250Y-127724720D01*
X289072250Y-127574030D01*
X289198855Y-127574030D01*
X289198855Y-128223000D01*
X289246305Y-128223000D01*
X289383025Y-128359720D01*
X289450279Y-128359720D01*
X289683668Y-128263047D01*
X289723715Y-128223000D01*
X289774800Y-128223000D01*
X289933550Y-128064250D01*
X289933550Y-127923970D01*
X289931154Y-127918185D01*
X289958970Y-127851030D01*
X289958970Y-127710750D01*
X289800220Y-127552000D01*
X289698295Y-127552000D01*
X289658248Y-127511953D01*
X289424859Y-127415280D01*
X289357605Y-127415280D01*
X289198855Y-127574030D01*
X289072250Y-127574030D01*
X289072250Y-127203605D01*
X289074885Y-127200970D01*
X289074885Y-126962842D01*
X289122250Y-126724720D01*
X289122250Y-126649030D01*
X289224275Y-126649030D01*
X289224275Y-127298000D01*
X289371305Y-127298000D01*
X289433025Y-127359720D01*
X289500279Y-127359720D01*
X289649284Y-127298000D01*
X289800220Y-127298000D01*
X289958970Y-127139250D01*
X289958970Y-126998970D01*
X289953331Y-126985355D01*
X290008970Y-126851030D01*
X290008970Y-126710750D01*
X289850220Y-126552000D01*
X289599284Y-126552000D01*
X289450279Y-126490280D01*
X289383025Y-126490280D01*
X289321305Y-126552000D01*
X289274275Y-126552000D01*
X289274275Y-126599030D01*
X289224275Y-126649030D01*
X289122250Y-126649030D01*
X289122250Y-126278000D01*
X289274275Y-126278000D01*
X289274275Y-126298000D01*
X289850220Y-126298000D01*
X289963220Y-126185000D01*
X294772560Y-126185000D01*
X294772560Y-126239000D01*
X294772560Y-126239000D01*
G37*
X294772560Y-126239000D02*
X293990020Y-126239000D01*
X293919999Y-126225072D01*
X293849978Y-126239000D01*
X293849974Y-126239000D01*
X293642582Y-126280253D01*
X293407398Y-126437398D01*
X293367733Y-126496761D01*
X291386342Y-128478153D01*
X291326979Y-128517818D01*
X291287314Y-128577181D01*
X291287312Y-128577183D01*
X291196233Y-128713493D01*
X291169834Y-128753002D01*
X291145512Y-128875279D01*
X291114652Y-129030420D01*
X291128581Y-129100446D01*
X291128581Y-130398508D01*
X291026030Y-130356030D01*
X290885750Y-130356030D01*
X290727000Y-130514780D01*
X290727000Y-131090725D01*
X290747000Y-131090725D01*
X290747000Y-131242750D01*
X290300280Y-131242750D01*
X290062158Y-131290115D01*
X289887021Y-131290115D01*
X289799720Y-131272750D01*
X289353000Y-131272750D01*
X289353000Y-131120725D01*
X289373000Y-131120725D01*
X289373000Y-130544780D01*
X289627000Y-130544780D01*
X289627000Y-131120725D01*
X290275970Y-131120725D01*
X290305970Y-131090725D01*
X290473000Y-131090725D01*
X290473000Y-130514780D01*
X290314250Y-130356030D01*
X290173970Y-130356030D01*
X290013787Y-130422380D01*
X289926030Y-130386030D01*
X289785750Y-130386030D01*
X289627000Y-130544780D01*
X289373000Y-130544780D01*
X289214250Y-130386030D01*
X289165000Y-130386030D01*
X289165000Y-130382998D01*
X289006252Y-130382998D01*
X289165000Y-130224250D01*
X289165000Y-130083691D01*
X289068327Y-129850302D01*
X288889699Y-129671673D01*
X288798386Y-129633850D01*
X288928658Y-129503578D01*
X289064000Y-129176833D01*
X289064000Y-128823167D01*
X289029093Y-128738893D01*
X289046830Y-128649720D01*
X289046830Y-128477000D01*
X289198855Y-128477000D01*
X289198855Y-129125970D01*
X289357605Y-129284720D01*
X289424859Y-129284720D01*
X289658248Y-129188047D01*
X289836877Y-129009419D01*
X289933550Y-128776030D01*
X289933550Y-128635750D01*
X289774800Y-128477000D01*
X289198855Y-128477000D01*
X289046830Y-128477000D01*
X289046830Y-128050280D01*
X289027161Y-127951398D01*
X289072250Y-127724720D01*
X289072250Y-127574030D01*
X289198855Y-127574030D01*
X289198855Y-128223000D01*
X289246305Y-128223000D01*
X289383025Y-128359720D01*
X289450279Y-128359720D01*
X289683668Y-128263047D01*
X289723715Y-128223000D01*
X289774800Y-128223000D01*
X289933550Y-128064250D01*
X289933550Y-127923970D01*
X289931154Y-127918185D01*
X289958970Y-127851030D01*
X289958970Y-127710750D01*
X289800220Y-127552000D01*
X289698295Y-127552000D01*
X289658248Y-127511953D01*
X289424859Y-127415280D01*
X289357605Y-127415280D01*
X289198855Y-127574030D01*
X289072250Y-127574030D01*
X289072250Y-127203605D01*
X289074885Y-127200970D01*
X289074885Y-126962842D01*
X289122250Y-126724720D01*
X289122250Y-126649030D01*
X289224275Y-126649030D01*
X289224275Y-127298000D01*
X289371305Y-127298000D01*
X289433025Y-127359720D01*
X289500279Y-127359720D01*
X289649284Y-127298000D01*
X289800220Y-127298000D01*
X289958970Y-127139250D01*
X289958970Y-126998970D01*
X289953331Y-126985355D01*
X290008970Y-126851030D01*
X290008970Y-126710750D01*
X289850220Y-126552000D01*
X289599284Y-126552000D01*
X289450279Y-126490280D01*
X289383025Y-126490280D01*
X289321305Y-126552000D01*
X289274275Y-126552000D01*
X289274275Y-126599030D01*
X289224275Y-126649030D01*
X289122250Y-126649030D01*
X289122250Y-126278000D01*
X289274275Y-126278000D01*
X289274275Y-126298000D01*
X289850220Y-126298000D01*
X289963220Y-126185000D01*
X294772560Y-126185000D01*
X294772560Y-126239000D01*
G36*
X273202750Y-129749720D02*
X273250115Y-129987842D01*
X273250115Y-130225970D01*
X273400422Y-130376277D01*
X272677000Y-131110942D01*
X272677000Y-130323532D01*
X272824721Y-130384720D01*
X272891975Y-130384720D01*
X273050725Y-130225970D01*
X273050725Y-129577000D01*
X273003420Y-129577000D01*
X273003420Y-129323000D01*
X273050725Y-129323000D01*
X273050725Y-129303000D01*
X273202750Y-129303000D01*
X273202750Y-129749720D01*
X273202750Y-129749720D01*
G37*
X273202750Y-129749720D02*
X273250115Y-129987842D01*
X273250115Y-130225970D01*
X273400422Y-130376277D01*
X272677000Y-131110942D01*
X272677000Y-130323532D01*
X272824721Y-130384720D01*
X272891975Y-130384720D01*
X273050725Y-130225970D01*
X273050725Y-129577000D01*
X273003420Y-129577000D01*
X273003420Y-129323000D01*
X273050725Y-129323000D01*
X273050725Y-129303000D01*
X273202750Y-129303000D01*
X273202750Y-129749720D01*
G36*
X288405000Y-130383000D02*
X288427000Y-130383000D01*
X288427000Y-130637000D01*
X288405000Y-130637000D01*
X288405000Y-130657000D01*
X288155000Y-130657000D01*
X288155000Y-130637000D01*
X288133000Y-130637000D01*
X288133000Y-130494236D01*
X288264236Y-130363000D01*
X288405000Y-130363000D01*
X288405000Y-130383000D01*
X288405000Y-130383000D01*
G37*
X288405000Y-130383000D02*
X288427000Y-130383000D01*
X288427000Y-130637000D01*
X288405000Y-130637000D01*
X288405000Y-130657000D01*
X288155000Y-130657000D01*
X288155000Y-130637000D01*
X288133000Y-130637000D01*
X288133000Y-130494236D01*
X288264236Y-130363000D01*
X288405000Y-130363000D01*
X288405000Y-130383000D01*
G36*
X280315680Y-126228663D02*
X280103000Y-126742119D01*
X280103000Y-127297881D01*
X280136277Y-127378218D01*
X279906762Y-127607733D01*
X279847399Y-127647398D01*
X279807734Y-127706761D01*
X279807732Y-127706763D01*
X279696155Y-127873750D01*
X279690254Y-127882582D01*
X279652461Y-128072582D01*
X279635072Y-128160000D01*
X279649001Y-128230025D01*
X279649000Y-129425494D01*
X279146762Y-129927733D01*
X279109606Y-129952560D01*
X279100000Y-129952560D01*
X279000000Y-129972451D01*
X278900000Y-129952560D01*
X278749500Y-129952560D01*
X278749500Y-129875861D01*
X278757809Y-129870309D01*
X278898157Y-129660265D01*
X278947440Y-129412500D01*
X278947440Y-129225092D01*
X279036199Y-129188327D01*
X279214827Y-129009698D01*
X279311500Y-128776309D01*
X279311500Y-128733750D01*
X279152750Y-128575000D01*
X278900199Y-128575000D01*
X278898157Y-128564735D01*
X278854902Y-128500000D01*
X278898157Y-128435265D01*
X278900199Y-128425000D01*
X279152750Y-128425000D01*
X279311500Y-128266250D01*
X279311500Y-128223691D01*
X279214827Y-127990302D01*
X279036199Y-127811673D01*
X278947440Y-127774908D01*
X278947440Y-127587500D01*
X278898157Y-127339735D01*
X278757809Y-127129691D01*
X278547765Y-126989343D01*
X278300000Y-126940060D01*
X278217107Y-126940060D01*
X278136960Y-126886507D01*
X277885053Y-126836400D01*
X277885049Y-126836400D01*
X277800000Y-126819483D01*
X277714951Y-126836400D01*
X276548034Y-126836400D01*
X276496735Y-126802123D01*
X276248970Y-126752840D01*
X275850190Y-126752840D01*
X275602425Y-126802123D01*
X275600000Y-126803743D01*
X275597575Y-126802123D01*
X275349810Y-126752840D01*
X274951030Y-126752840D01*
X274703265Y-126802123D01*
X274654061Y-126835000D01*
X274457630Y-126835000D01*
X274299720Y-126803590D01*
X273700280Y-126803590D01*
X273544481Y-126834580D01*
X273345310Y-126834580D01*
X273296735Y-126802123D01*
X273048970Y-126752840D01*
X272677000Y-126752840D01*
X272677000Y-126185000D01*
X280359343Y-126185000D01*
X280315680Y-126228663D01*
X280315680Y-126228663D01*
G37*
X280315680Y-126228663D02*
X280103000Y-126742119D01*
X280103000Y-127297881D01*
X280136277Y-127378218D01*
X279906762Y-127607733D01*
X279847399Y-127647398D01*
X279807734Y-127706761D01*
X279807732Y-127706763D01*
X279696155Y-127873750D01*
X279690254Y-127882582D01*
X279652461Y-128072582D01*
X279635072Y-128160000D01*
X279649001Y-128230025D01*
X279649000Y-129425494D01*
X279146762Y-129927733D01*
X279109606Y-129952560D01*
X279100000Y-129952560D01*
X279000000Y-129972451D01*
X278900000Y-129952560D01*
X278749500Y-129952560D01*
X278749500Y-129875861D01*
X278757809Y-129870309D01*
X278898157Y-129660265D01*
X278947440Y-129412500D01*
X278947440Y-129225092D01*
X279036199Y-129188327D01*
X279214827Y-129009698D01*
X279311500Y-128776309D01*
X279311500Y-128733750D01*
X279152750Y-128575000D01*
X278900199Y-128575000D01*
X278898157Y-128564735D01*
X278854902Y-128500000D01*
X278898157Y-128435265D01*
X278900199Y-128425000D01*
X279152750Y-128425000D01*
X279311500Y-128266250D01*
X279311500Y-128223691D01*
X279214827Y-127990302D01*
X279036199Y-127811673D01*
X278947440Y-127774908D01*
X278947440Y-127587500D01*
X278898157Y-127339735D01*
X278757809Y-127129691D01*
X278547765Y-126989343D01*
X278300000Y-126940060D01*
X278217107Y-126940060D01*
X278136960Y-126886507D01*
X277885053Y-126836400D01*
X277885049Y-126836400D01*
X277800000Y-126819483D01*
X277714951Y-126836400D01*
X276548034Y-126836400D01*
X276496735Y-126802123D01*
X276248970Y-126752840D01*
X275850190Y-126752840D01*
X275602425Y-126802123D01*
X275600000Y-126803743D01*
X275597575Y-126802123D01*
X275349810Y-126752840D01*
X274951030Y-126752840D01*
X274703265Y-126802123D01*
X274654061Y-126835000D01*
X274457630Y-126835000D01*
X274299720Y-126803590D01*
X273700280Y-126803590D01*
X273544481Y-126834580D01*
X273345310Y-126834580D01*
X273296735Y-126802123D01*
X273048970Y-126752840D01*
X272677000Y-126752840D01*
X272677000Y-126185000D01*
X280359343Y-126185000D01*
X280315680Y-126228663D01*
G36*
X276652500Y-128627002D02*
X276759248Y-128627002D01*
X276656053Y-128730198D01*
X276615970Y-128690115D01*
X276377842Y-128690115D01*
X276161891Y-128647160D01*
X276248970Y-128647160D01*
X276496735Y-128597877D01*
X276548034Y-128563600D01*
X276652500Y-128563600D01*
X276652500Y-128627002D01*
X276652500Y-128627002D01*
G37*
X276652500Y-128627002D02*
X276759248Y-128627002D01*
X276656053Y-128730198D01*
X276615970Y-128690115D01*
X276377842Y-128690115D01*
X276161891Y-128647160D01*
X276248970Y-128647160D01*
X276496735Y-128597877D01*
X276548034Y-128563600D01*
X276652500Y-128563600D01*
X276652500Y-128627002D01*
G36*
X275828019Y-128642750D02*
X275693000Y-128642750D01*
X275693000Y-128615893D01*
X275828019Y-128642750D01*
X275828019Y-128642750D01*
G37*
X275828019Y-128642750D02*
X275693000Y-128642750D01*
X275693000Y-128615893D01*
X275828019Y-128642750D01*
G36*
X285902000Y-127573000D02*
X285922000Y-127573000D01*
X285922000Y-127827000D01*
X285902000Y-127827000D01*
X285902000Y-127847000D01*
X285648000Y-127847000D01*
X285648000Y-127827000D01*
X285628000Y-127827000D01*
X285628000Y-127573000D01*
X285648000Y-127573000D01*
X285648000Y-127553000D01*
X285902000Y-127553000D01*
X285902000Y-127573000D01*
X285902000Y-127573000D01*
G37*
X285902000Y-127573000D02*
X285922000Y-127573000D01*
X285922000Y-127827000D01*
X285902000Y-127827000D01*
X285902000Y-127847000D01*
X285648000Y-127847000D01*
X285648000Y-127827000D01*
X285628000Y-127827000D01*
X285628000Y-127573000D01*
X285648000Y-127573000D01*
X285648000Y-127553000D01*
X285902000Y-127553000D01*
X285902000Y-127573000D01*
G04 #@! TD*
M02*
