M48
;DRILL file {KiCad (5.0.0)} date 06/09/19 20:22:19
;FORMAT={-:-/ absolute / inch / decimal}
FMAT,2
INCH,TZ
T1C0.0130
%
G90
G05
M72
T1
X10.5882Y-5.596
X10.59Y-5.339
X10.6327Y-5.5161
X10.6772Y-5.6929
X10.7756Y-5.6732
X10.8102Y-5.0965
X10.8126Y-5.3941
X10.8315Y-5.1567
X10.8984Y-5.0559
X10.9252Y-5.6791
X10.9321Y-5.5758
X10.987Y-5.0591
X11.0583Y-5.4
X11.0669Y-5.7205
X11.078Y-5.4878
X11.0906Y-5.6575
X11.1535Y-4.9774
X11.1713Y-5.448
X11.2217Y-5.2299
X11.2275Y-5.1744
X11.2382Y-5.122
X11.251Y-5.0276
X11.2626Y-5.3098
X11.3209Y-4.9589
X11.3217Y-5.1102
X11.3283Y-5.5051
X11.3455Y-5.0787
X11.348Y-5.4449
X11.352Y-5.5567
X11.4055Y-5.5305
X11.4173Y-5.7091
X11.4193Y-5.6722
X11.511Y-5.587
T0
M30
