M48
;DRILL file {KiCad 4.0.6} date 06/26/18 11:36:24
;FORMAT={-:-/ absolute / inch / decimal}
FMAT,2
INCH,TZ
T1C0.013
T2C0.039
T3C0.040
%
G90
G05
M72
T1
X10.5882Y-5.596
X10.59Y-5.339
X10.6327Y-5.5161
X10.8102Y-5.0965
X10.8126Y-5.3941
X10.8315Y-5.1567
X10.8984Y-5.0559
X10.9382Y-5.6484
X10.9846Y-5.5913
X10.987Y-5.0591
X11.0583Y-5.4
X11.063Y-5.6445
X11.1547Y-4.9823
X11.1713Y-5.448
X11.2217Y-5.2299
X11.2275Y-5.1744
X11.2626Y-5.3098
X11.2776Y-5.5217
X11.2807Y-5.5634
X11.3126Y-4.9799
X11.3217Y-5.1102
X11.348Y-5.4449
X11.5449Y-5.5992
T2
X11.5327Y-5.6567
X11.6327Y-5.6567
X11.6555Y-5.5398
X11.6563Y-5.124
X11.6563Y-5.224
X11.6563Y-5.324
X11.6563Y-5.424
T3
X10.5358Y-5.2988
X10.5358Y-5.3988
X11.0827Y-5.0008
X11.0827Y-5.1008
T0
M30
